<?xml version="1.0" encoding="utf-8"?>
<!-- Generator: Adobe Illustrator 23.0.3, SVG Export Plug-In . SVG Version: 6.00 Build 0)  -->
<svg version="1.1" id="Calque_1" xmlns="http://www.w3.org/2000/svg" xmlns:xlink="http://www.w3.org/1999/xlink" x="0px" y="0px"
	 viewBox="0 0 595.28 841.89" style="enable-background:new 0 0 595.28 841.89;" xml:space="preserve">
<style type="text/css">
	.st0{fill-rule:evenodd;clip-rule:evenodd;fill:url(#SVGID_1_);}
	.st1{fill-rule:evenodd;clip-rule:evenodd;fill:url(#SVGID_2_);}
	.st2{fill-rule:evenodd;clip-rule:evenodd;fill:url(#SVGID_3_);}
	.st3{fill-rule:evenodd;clip-rule:evenodd;fill:url(#SVGID_4_);}
	.st4{fill-rule:evenodd;clip-rule:evenodd;fill:url(#SVGID_5_);}
	.st5{fill-rule:evenodd;clip-rule:evenodd;fill:url(#SVGID_6_);}
	.st6{fill-rule:evenodd;clip-rule:evenodd;fill:url(#SVGID_7_);}
	.st7{fill-rule:evenodd;clip-rule:evenodd;fill:url(#SVGID_8_);}
	.st8{fill-rule:evenodd;clip-rule:evenodd;fill:url(#SVGID_9_);}
	.st9{fill-rule:evenodd;clip-rule:evenodd;fill:url(#SVGID_10_);}
	.st10{opacity:0.5;fill-rule:evenodd;clip-rule:evenodd;fill:url(#SVGID_11_);}
	.st11{fill-rule:evenodd;clip-rule:evenodd;fill:url(#SVGID_12_);}
	.st12{fill-rule:evenodd;clip-rule:evenodd;fill:url(#SVGID_13_);}
	.st13{fill-rule:evenodd;clip-rule:evenodd;fill:url(#SVGID_14_);}
	.st14{fill-rule:evenodd;clip-rule:evenodd;fill:url(#SVGID_15_);}
	.st15{fill-rule:evenodd;clip-rule:evenodd;fill:url(#SVGID_16_);}
	.st16{fill-rule:evenodd;clip-rule:evenodd;fill:url(#SVGID_17_);}
	.st17{fill-rule:evenodd;clip-rule:evenodd;fill:url(#SVGID_18_);}
	.st18{fill-rule:evenodd;clip-rule:evenodd;fill:url(#SVGID_19_);}
	.st19{fill-rule:evenodd;clip-rule:evenodd;fill:url(#SVGID_20_);}
	.st20{fill-rule:evenodd;clip-rule:evenodd;fill:url(#SVGID_21_);}
	.st21{fill-rule:evenodd;clip-rule:evenodd;fill:url(#SVGID_22_);}
	.st22{fill-rule:evenodd;clip-rule:evenodd;fill:url(#SVGID_23_);}
	.st23{fill-rule:evenodd;clip-rule:evenodd;fill:url(#SVGID_24_);}
	.st24{fill-rule:evenodd;clip-rule:evenodd;fill:url(#SVGID_25_);}
	.st25{fill-rule:evenodd;clip-rule:evenodd;fill:url(#SVGID_26_);}
	.st26{fill-rule:evenodd;clip-rule:evenodd;fill:url(#SVGID_27_);}
	.st27{fill-rule:evenodd;clip-rule:evenodd;fill:url(#SVGID_28_);}
	.st28{fill-rule:evenodd;clip-rule:evenodd;fill:url(#SVGID_29_);}
	.st29{fill-rule:evenodd;clip-rule:evenodd;fill:url(#SVGID_30_);}
	.st30{fill-rule:evenodd;clip-rule:evenodd;fill:url(#SVGID_31_);}
	.st31{fill-rule:evenodd;clip-rule:evenodd;fill:url(#SVGID_32_);}
	.st32{fill-rule:evenodd;clip-rule:evenodd;fill:url(#SVGID_33_);}
	.st33{fill-rule:evenodd;clip-rule:evenodd;fill:url(#SVGID_34_);}
</style>
<g>
	
		<radialGradient id="SVGID_1_" cx="190.3303" cy="355.4783" r="105.2607" gradientTransform="matrix(0.9969 -0.0791 0.0791 0.9969 -27.4955 19.3077)" gradientUnits="userSpaceOnUse">
		<stop  offset="0" style="stop-color:#A4CDED"/>
		<stop  offset="0.1142" style="stop-color:#B6D6F0"/>
		<stop  offset="0.3423" style="stop-color:#D4E5F6"/>
		<stop  offset="0.5684" style="stop-color:#EAF2FA"/>
		<stop  offset="0.7896" style="stop-color:#F8FBFE"/>
		<stop  offset="1" style="stop-color:#FFFFFF"/>
	</radialGradient>
	<path class="st0" d="M199.22,280.97c-3.15,1.59-5.83,4.02-7.71,6.64c0.9-3.39,0.39-8.33-5.92-9.04c-17.67-2-27.79,20.56-31.66,32.8
		c-7.26-4.06-19.14-2.63-26.26,6.95c-10.54,14.18-7.99,34.28-2.37,50.33c-4.28-0.38-7.31,1.92-9.02,5.87
		c-6.25,14.44,3.75,37.9,13.09,41.39c15.37,5.73,86.83-107.83,88.1-126.97C218.22,277.67,206.98,277.07,199.22,280.97L199.22,280.97
		z"/>
	
		<radialGradient id="SVGID_2_" cx="188.5948" cy="382.9023" r="113.3214" gradientTransform="matrix(0.9969 -0.0791 0.0791 0.9969 -27.4955 19.3077)" gradientUnits="userSpaceOnUse">
		<stop  offset="0" style="stop-color:#ABC2E5"/>
		<stop  offset="0.9963" style="stop-color:#FFFFFF"/>
	</radialGradient>
	<path class="st1" d="M126.7,371.68c-13.6-3.58-10.38,28.99-2.16,40.77c1.57,1.65,3.21,2.85,4.82,3.46
		c12.95,4.83,65.72-75.03,82.78-111.74c4.9-19.84-7.47-30.95-23.98-9.37c1.05-4.31-0.7-9.75-2.74-10.82
		c-12.24-6.43-26.72,20.01-35,41.47c0.75-3.78,1.39-6.51,2.25-9.71c-32.03-2-28.06,39.74-23.83,61.07
		C128.13,375.1,127.42,373.39,126.7,371.68L126.7,371.68z"/>
</g>
<g>
	<radialGradient id="SVGID_3_" cx="251.4222" cy="353.664" r="269.2808" gradientUnits="userSpaceOnUse">
		<stop  offset="0" style="stop-color:#3897D3"/>
		<stop  offset="0.9219" style="stop-color:#5458A6"/>
	</radialGradient>
	<path class="st2" d="M292.53,260.98c91.63,0,165.91,74.28,165.91,165.91c0,91.63-74.28,165.91-165.91,165.91
		s-165.91-74.28-165.91-165.91C126.62,335.26,200.9,260.98,292.53,260.98L292.53,260.98z"/>
	<radialGradient id="SVGID_4_" cx="306.6656" cy="442.3106" r="186.7009" gradientUnits="userSpaceOnUse">
		<stop  offset="0.0409" style="stop-color:#010101"/>
		<stop  offset="0.8439" style="stop-color:#010101"/>
		<stop  offset="0.8868" style="stop-color:#3A4344"/>
		<stop  offset="0.9267" style="stop-color:#63797E"/>
		<stop  offset="0.96" style="stop-color:#85A9B4"/>
		<stop  offset="0.9854" style="stop-color:#9CCBDB"/>
		<stop  offset="1" style="stop-color:#A6DEEF"/>
	</radialGradient>
	<path class="st3" d="M292.53,260.98c91.63,0,165.91,74.28,165.91,165.91c0,91.63-74.28,165.91-165.91,165.91
		s-165.91-74.28-165.91-165.91C126.62,335.26,200.9,260.98,292.53,260.98L292.53,260.98z"/>
	<radialGradient id="SVGID_5_" cx="220.076" cy="308.9387" r="272.5786" gradientUnits="userSpaceOnUse">
		<stop  offset="0" style="stop-color:#3FC7F4"/>
		<stop  offset="1" style="stop-color:#010101"/>
	</radialGradient>
	<path class="st4" d="M289.1,532.1c-2.52,0.55-4.48-0.26-5.83,1.4c-1.87,2.29-1.73,5.39,4.1,5.14c2.75-0.12,0.46,4.53,2.8,5.36
		c6.07,2.15,11.82,1.19,15.94-3.52c1.44-1.64,2.22-2.26,5.9-3.17c2.86-0.71-3.05-2.74,5.5-4.49c9.4-1.92,2.58-3.06,8.9-8.46
		c1.86-1.59-4.51-5.9,3.9-8.4c6.66-1.98,6.34-1.45,7.31-7.99c0.52-3.48-0.94-3.16-4.34-3.62c-4.73-0.64-4.69,6.76-10.63,8.3
		c-3.61,0.94-9.85,3.92-9.22,8.27c0.75,5.15-5.23,9.3-5.37,0.4c-0.11-6.78-4.29-6.6-5.82-3.13c-0.76,1.71-1.12,4.14-1.82,5.67
		c-1.53,3.35-4.21,3.8-5.81,5.43C293.12,530.82,292.47,531.37,289.1,532.1L289.1,532.1z M253.21,276.07c0.66-0.06,1.3-0.24,1.94-0.4
		c1.33-0.34,2.61-0.93,3.98-1.11c4.94-0.64,9.91-1.33,14.9-1.35c1.12,0,2.01,1.05,3.1,1.28c1.5,0.32,3.05,0.39,4.58,0.34
		c1.99-0.06,3.95-0.87,5.93-0.67c4.24,0.42,8.48,1.2,12.54,2.49c3.57,1.13,6.68,3.4,10.18,4.72c2.3,0.87,4.89,0.85,7.15,1.82
		c2.45,1.05,4.91,2.31,6.81,4.18c1.84,1.8,2.72,4.37,4.11,6.54c0.05,0.08,0.13,0.14,0.2,0.2c1.7,1.47,3.31,3.06,5.12,4.38
		c1.86,1.36,4.06,2.22,5.87,3.64c1.67,1.32,3.21,2.84,4.52,4.52c1.58,2.03,3.06,4.19,4.11,6.54c1.82,4.05,2.99,8.35,4.45,12.54
		c2.18,6.28,5.33,12.32,6.47,18.88c1.14,6.55,1.36,13.39,0.27,19.96c-2.26,13.64-4.69,27.53-10.25,40.18
		c-1.63,3.7-7.53,3.48-10.25,6.47c-2.78,3.07-3.21,7.72-5.66,11.06c-1.15,1.57-3.82,1.59-4.85,3.24
		c-4.29,6.8-6.77,14.61-10.79,21.58c-1.76,3.05-3.72,6.15-6.47,8.36c-4.65,3.73-10.5,5.72-15.37,9.17c-2.54,1.8-3.99,5.02-6.74,6.47
		c-6.92,3.66-14.62,5.6-21.84,8.63c-0.84,0.35-1.48,1.07-2.29,1.48c-3.91,1.98-7.85,3.9-11.87,5.66c-2.96,1.3-5.82,3.18-9.03,3.51
		c-2.41,0.24-4.61-1.58-7.01-1.89c-1.87-0.24-3.79,0-5.66,0.27c-2.19,0.32-4.45,0.58-6.47,1.48c-2.86,1.28-4.96,4.09-7.96,4.99
		c-1.51,0.46-3.34-0.24-4.58-1.21c-1.46-1.15-1.48-3.6-2.97-4.72c-1.13-0.85-2.8-0.37-4.18-0.67c-3.16-0.69-6.72-0.54-9.44-2.29
		c-2.04-1.31-2.67-4.05-3.78-6.2c-0.75-1.46-0.37-3.72-1.75-4.58c-1.45-0.91-3.42,0.38-5.12,0.27c-1.2-0.07-3.03,0.29-3.51-0.81
		c-0.73-1.67,1.42-3.68,0.81-5.39c-0.4-1.1-2.07-1.45-3.24-1.35c-1.66,0.14-2.92,2.12-4.58,2.02c-1.67-0.1-3.05-1.47-4.31-2.56
		c-1.98-1.7-3.8-3.62-5.33-5.73c-0.58-0.8-0.85-1.84-0.88-2.83c-0.02-1.08,1.07-2.14,0.74-3.17c-0.31-0.96-1.92-0.98-2.36-1.89
		c-0.4-0.83,0.48-1.91,0.13-2.76c-0.16-0.4-0.87,0.04-1.28-0.07c-2.22-0.57-4.63-0.79-6.61-1.96c-0.83-0.49-1.28-1.67-1.21-2.63
		c0.08-1.24,1.82-2.14,1.62-3.37c-0.19-1.15-1.59-1.73-2.56-2.36c-0.76-0.49-1.74-0.55-2.56-0.94c-0.08-0.04-0.02-0.18,0-0.27
		c0.16-0.79,0.17-1.64,0.54-2.36c0.48-0.92,1.47-1.51,1.96-2.43c0.47-0.89,0.83-1.89,0.88-2.9c0.02-0.52-0.18-1.25-0.67-1.42
		c-1.56-0.53-3.32-0.08-4.92-0.47c-0.76-0.19-1.52-0.61-2.02-1.21c-0.63-0.76-1.21-1.71-1.21-2.7c0-3.84,1.18-7.62,1.21-11.46
		c0.01-1.75-0.51-3.47-1.08-5.12c-0.7-2.01-2.25-3.71-2.7-5.8c-0.35-1.63-0.02-3.37,0.4-4.99c0.45-1.71,1.49-3.22,2.16-4.85
		c0.63-1.55,1.44-3.07,1.75-4.72c0.33-1.72,0.15-3.51,0.13-5.26c-0.03-2.74-0.61-5.5-0.27-8.23c0.34-2.69,1.05-5.4,2.29-7.82
		c1.19-2.3,3.29-4,4.85-6.07c0.68-0.9,1.38-1.82,1.89-2.83c0.76-1.52,1.34-3.12,1.89-4.72c0.75-2.18,1.13-4.49,2.02-6.61
		c1.31-3.11,2.52-6.37,4.59-9.03c1.44-1.85,3.97-2.56,5.66-4.18c1.48-1.42,2.57-3.2,3.78-4.85c1.45-1.99,2.4-4.37,4.18-6.07
		c1.24-1.18,3.36-1.1,4.59-2.29c1.28-1.25,1.3-3.45,2.56-4.72c2.41-2.44,5.78-3.79,8.23-6.2c1.61-1.59,2.57-3.74,3.78-5.66
		c1.31-2.08,2.08-4.56,3.78-6.34c1.19-1.25,2.95-1.85,4.58-2.43c2.76-0.97,5.74-1.18,8.49-2.16c1.2-0.43,2.16-1.34,3.24-2.02
		c2.84-1.79,5.75-3.47,8.5-5.39c1.89-1.32,3.42-3.13,5.39-4.31c1.95-1.17,4.11-1.99,6.27-2.7c1.01-0.33,2.15-0.09,3.17-0.4
		c1.12-0.35,2.04-1.2,3.17-1.55c1.89-0.58,3.84-0.95,5.8-1.21C250.27,276.04,251.75,276.2,253.21,276.07L253.21,276.07z
		 M343.89,288.25c-1.43,0-1.15-0.07-2.39,0.42c-0.18,2.28-0.83,1.53,0.43,3.66c2.26,3.83-2.58,4,0.73,8.46
		c0.9,1.22,5.06-0.74,5.17,1.77c0.08,1.85,4.42-0.81,6.23,4.8c0.18,0.57,1.19,1.38,1.68,3.42c1.4,5.87-3.63,1.68-2.38,6.32
		c0.44,1.63,2.81,0.68,2.97,3.44c0.01,0.25,3.22,2.55,3.65,4.45c0.85,3.81,4.93,3.32,4.85-1.83c-0.03-1.84,0.79-3.65-0.04-6.2
		c-0.97-2.97-1.16-8.39-3.87-10.71c-0.85-0.72-3.84-1.54-3.84-2.7c0-7.21-4.2-3.37-4.65-8.78c-0.15-1.82-4.34-1.72-4.53-3.84
		c-0.11-1.24-2.07-2.7-3.59-2.7C344.16,288.25,344.03,288.25,343.89,288.25L343.89,288.25z M338.15,430.62
		c-7.07-1.02-2.61,6.6-7.24,10.13c-1.49,1.14-2.18,5.82-3.64,6.75c-1.71,1.09-1.51,7.77,5.83,2.96c4.49-2.94-0.09-3.55,10.29-3.08
		c5.04,0.23,7.71-3.79,5.3-8.09c-2.48-4.43,4.48-3.03,1.49-8.71c-2.28-4.31,3.61-2.31,6.2-10.87c1.95-6.45-3.06-0.64-2.36-8.16
		c0.2-2.13-3.16-1.11-4.88,0.72c-5.63,6-4.03,1.9-4.16,11.18c-0.03,2.24-2.94,2.69-5.16,4.55
		C337.92,429.6,339.05,430.75,338.15,430.62L338.15,430.62z M307.17,473.09c-8.1-1.65-8.79,4.29-10.96,5.93
		c-0.48,0.36-0.22,2.86-3.61,3.66c-1.82,0.43-5.75,3.46-10.18,3.35c-1.54-0.04-11.92,8.28-0.66,7.97
		c5.54-0.15,11.63-5.91,19.79-5.68c3.22,0.09,9.69-2.49,11.05-6.08c1.45-3.87,7.97-1.14,7.03-8.75c-0.32-2.58,2.67-1.88,2.57-6.02
		c-0.03-1.23,0.32-4.09-0.11-6.17c-0.8-3.89-4-3.46-5.01,1.61c-0.36,1.81-1.1,3.93-3.48,5.46c-3.34,2.15-3.86-0.52-5.45,4.35
		C307.99,473.24,307.65,473.19,307.17,473.09L307.17,473.09z M328.15,400.65c-4.19,1.02-0.97,7.47-4.76,10.11
		c-1.47,1.03,2.12,3.92-3.55,7.65c-2.42,1.59-2.49,8.22-9.74,12.04c-2.7,1.42-4.5,3.31-7.9,3.58c-3.54,0.28-2.49,2.44-6.75,2.97
		c-0.6,0.07-8.99,5.34-9.19,3.41c-0.56-0.12-0.25-4.05,3.35-4.73c0.02,0,2.97-1.89,4.37-2.39c8.23-2.96,7.05-9.57,8.33-9.88
		c2.66-0.65,5.39-6.94,7.72-7.42c1.28-0.26,3.25-4.28,2.08-6.82c-0.98-2.14,2.87-6.78,5.72-6.8c6.69-0.05,0.15-5.83,7.34-7.3
		c1.98-0.4,1.97-2.88,3.22-3.26c6.27-1.88,5.52-20.21,9.56-17.61c0.06,0.04,5.17,13.44,1.63,15.04c-6.78,3.08,2.12,7.03-4.85,10.89
		C332.51,401.36,330.34,400.12,328.15,400.65L328.15,400.65z"/>
	<radialGradient id="SVGID_6_" cx="252.7068" cy="365.9114" r="256.0535" gradientUnits="userSpaceOnUse">
		<stop  offset="0.5576" style="stop-color:#F5F5FA"/>
		<stop  offset="0.6347" style="stop-color:#EFEAF4"/>
		<stop  offset="0.7706" style="stop-color:#E0CFE6"/>
		<stop  offset="0.9481" style="stop-color:#CBA7CE"/>
		<stop  offset="1" style="stop-color:#C59AC7"/>
	</radialGradient>
	<path class="st5" d="M344.38,533.93c-8.73,0.2-7.42-4.63-14.94,3.44c-2.34,2.52-4.96,5.47-6.1,6.54c-1.59,1.48-3.23,2.97-5.12,4.05
		c-1.93,1.1-4.37,1.17-6.2,2.43c-1.68,1.15-2.18,3.77-4.05,4.58c-5.37,2.34-11.6-3-16.72-3.51c-10.61-1.05-18.45,7.19-24.81,8.9
		c-1.79,0.48-3.64-1.95-5.39-1.35c-2.17,0.74-2.65,4.23-4.85,4.85c-1.91,0.54-4.22-0.52-5.66-1.89
		c-3.84-3.65-4.81-10.93-11.06-14.02c-8.28-4.1-30.52-9.82-35.87-14.29c-3.82-3.2-4.74-8.98-8.36-12.41
		c-1.77-1.68-5.09-0.65-7.01-2.16c-2.92-2.28,1.49-6.91-9.3-6.48c-10.82,0.43-17.8,8.63-14.43-17.52c0.33-2.55,1.81-8.9-2.97-5.66
		c-3.32,2.25-7.39,9.06-13.48,7.28c-1.97-0.58-2.9-3.34-2.97-5.39c-0.12-3.86,1.41-7.6,2.43-11.33c1.51-5.54,3.82-10.86,5.12-16.45
		c1.25-5.36-2.18-6.06-4.85-3.24c-2.89,3.05-4.93,7-8.36,9.44c-3.83,2.72-5.93-5.23-5.39-8.36c0.61-3.53,2.7-6.67,4.58-9.71
		c0.89-1.44,1.12-2.65-0.84-1.96c-1.73,0.62-4.11,1.67-6.17,2.22c-0.87,0.24-1.92-0.21-1.35-1.62c2.12-5.22,4.78-10.53,5.12-16.18
		c0.14-2.26-3.11-3.5-3.78-5.66c-0.48-1.56,0.82-3.25,0.54-4.85c-0.2-1.16-1.89-1.79-1.89-2.97c0-3.21,1.39-6.27,1.89-9.44
		c0.35-2.23,0.84-4.49,0.67-6.74c-0.25-3.32-3.08-2.39-3.62-6.86c-1.69,9.5-2.57,19.29-2.57,29.28
		c0,91.63,74.28,165.91,165.91,165.91c91.63,0,165.91-74.28,165.91-165.91c0-70.02-43.38-129.91-104.73-154.27
		c0.53,0.28,1.05,0.56,1.58,0.85c8.27,4.55,4.9,6.45,6.07,7.96c0.91,1.18,2.37,1.79,3.64,2.56c3.37,2.06,7.08,3.58,10.25,5.93
		c1.09,0.81,1.55,2.23,2.29,3.37c1.24,1.92,2.11,4.11,3.64,5.8c1.09,1.2,3.34,1.24,4.05,2.7c0.82,1.7,0.36,3.24,1.62,4.65
		c1.77,1.99,6.31,0.51,9.17,6.94c0.88,1.98-0.83,8.17,0.81,11.87c1.34,3.01,3.5,5.61,5.66,8.09c2.89,3.3,7.21,5.39,9.44,9.17
		c1.72,2.91,3.45,6.46,3.64,9.84c0.09,1.57-0.34,3.2-1.08,4.58c-0.84,1.58-3.32,2.27-3.51,4.05c-0.91,8.53,14.54,28.11,17.93,38.97
		c2.85,9.11,4.39,18.77,4.32,28.32c-0.02,2.43-2.95,7.46-4.58,5.66c-3.77-4.16-0.65-16.55-5.39-23.06
		c-4.86-6.66-6.16,6.03-5.93,8.23c1.3,12.4,8.55,14.64,2.43,27.24c-0.56,1.16-4.01,3.87-5.12,3.24c-1.54-0.88-0.87-3.64-2.16-4.85
		c-0.56-0.53-1.69,0.2-2.16,0.81c-1.6,2.11-3.56,4.37-3.78,7.01c-0.36,4.45,1.97,8.76,2.16,13.21c0.08,1.96-0.78,3.85-1.35,5.73
		c-0.56,1.84-1.16,3.68-2.02,5.39c-0.72,1.45-2.07,2.55-2.7,4.05c-0.74,1.75-0.77,3.72-1.35,5.53c-0.5,1.57-0.94,3.23-1.89,4.58
		c-1.12,1.59-3.23,2.35-4.18,4.05c-1.06,1.9-0.43,4.51-1.62,6.34c-0.85,1.32-3.21,1.1-4.05,2.43c-1.16,1.84-0.14,4.63-1.48,6.34
		c-0.81,1.04-3.08-0.48-3.91,0.54c-1.36,1.65-0.33,4.5-1.62,6.2c-0.82,1.08-2.6,1.43-3.91,1.08c-0.98-0.26-0.85-1.91-1.62-2.56
		c-4.4-3.75-4.42-0.46-5.8,1.08c-1.22,1.37-2.72,1.11-3.91,0.54c-2.5-1.19-3.05-6.4-3.91-8.5c-0.7-1.71-3.79-0.58-4.85,1.75
		c-0.97,2.13-0.54,4.69-1.35,6.88c-0.27,0.72-1.52,0.75-1.75,1.48c-1.6,4.97,0.67,9.99-5.93,13.89
		C347.98,533.48,346.15,533.89,344.38,533.93L344.38,533.93z"/>
	<radialGradient id="SVGID_7_" cx="249.6814" cy="381.7623" r="178.1441" gradientUnits="userSpaceOnUse">
		<stop  offset="0" style="stop-color:#99CA3C"/>
		<stop  offset="1" style="stop-color:#16A149"/>
	</radialGradient>
	<path class="st6" d="M127.15,397c-1.74,4.73-5.59,12.93-5.66,14.02c-0.08,1.14,2.05,6.58,2.16,9.98c0.08,2.57-1.9,6.68-1.62,7.55
		c3.04,9.41,4.38,19.32,5.66,29.13c0.35,2.69-1.11,7.19-0.81,8.09c0.52,1.55,5.68,11.68,7.82,17.8c0.93,2.66-0.1,5.94,1.35,8.36
		c6.03,10.07,7.16,19.61,10.79,29.4c0.42,1.13,6.46,4.46,9.44,7.01c8.87,7.6,9.77,11.44,15.64,17.8c4.17,4.51,8.65,8.8,13.62,12.41
		c3.33,2.42,7.57,3.33,11.06,5.53c2.48,1.56,4.2,4.2,6.74,5.66c4.75,2.75,9.88,4.82,14.97,6.88c2.11,0.85,4.39,1.22,6.59,1.83
		c-1.36-0.58-2.7-1.39-3.64-2.5c-0.39-0.46-0.11-1.27-0.47-1.75c-0.41-0.55-1.36-0.55-1.69-1.15c-0.28-0.52,0.41-1.23,0.13-1.75
		c-0.34-0.65-1.16-0.92-1.75-1.35c-0.55-0.4-1.4-0.53-1.69-1.15c-0.22-0.47,0.53-0.97,0.47-1.48c-0.07-0.64-0.32-1.34-0.81-1.75
		c-0.97-0.83-2.49-0.89-3.37-1.82c-0.47-0.49-0.6-1.43-0.27-2.02c0.43-0.79,1.9-0.71,2.22-1.55c0.27-0.7-0.3-1.54-0.81-2.09
		c-0.53-0.57-1.42-0.62-2.09-1.01c-0.64-0.38-1.82-0.54-1.82-1.28c0-0.61,1.22-0.34,1.82-0.2c1.36,0.3,2.52,1.35,3.91,1.48
		c0.86,0.08,1.6-0.65,2.43-0.88c0.86-0.24,1.76-0.75,2.63-0.54c1.05,0.25,1.72,1.35,2.7,1.82c0.41,0.2,0.9,0.08,1.35,0.14
		c1.78,0.22,3.54,0.75,5.33,0.67c0.81-0.04,1.85-0.29,2.22-1.01c0.43-0.82,0.27-2.01-0.27-2.76c-0.55-0.77-1.62-1.24-2.56-1.21
		c-1.15,0.03-2.06,1.05-3.17,1.35c-0.78,0.21-1.66,0.39-2.43,0.13c-1.45-0.49-2.53-1.79-3.98-2.29c-1.02-0.35-2.39,0.47-3.24-0.2
		c-2.77-2.22-4.45-5.57-7.01-8.02c-0.57-0.54-1.45-0.94-2.22-0.81c-1.64,0.28-2.98,1.54-4.58,1.96c-0.55,0.14-1.11-0.33-1.69-0.34
		c-0.99-0.01-2,0.49-2.97,0.27c-0.93-0.21-1.86-0.72-2.43-1.48c-0.47-0.64-0.16-1.6-0.4-2.36c-0.23-0.7-0.36-1.62-1.01-1.96
		c-1.89-0.98-4.23-0.8-6.14-1.75c-0.48-0.24-0.11-1.15-0.47-1.55c-0.92-1.02-2.28-1.57-3.24-2.56c-0.2-0.21-0.34-0.99-0.07-0.88
		c1.01,0.42,1.64,1.48,2.63,1.96c0.57,0.27,1.32-0.07,1.89,0.2c0.75,0.36,1.08,1.42,1.89,1.62c1.22,0.31,2.53-0.36,3.78-0.2
		c1.42,0.18,2.69,1.11,4.11,1.21c0.48,0.04,1.19-0.32,1.21-0.81c0.08-1.67-1.28-3.29-0.94-4.92c0.19-0.92,1.37-1.76,2.29-1.62
		c1.16,0.18,1.47,2.15,2.63,2.36c1.6,0.29,3.16-0.96,4.79-1.01c1.28-0.04,2.56,1.14,3.78,0.74c0.67-0.22-0.27-1.73,0.34-2.09
		c0.6-0.35,1.26,0.77,1.96,0.74c0.63-0.02,1.05-0.87,1.69-0.88c0.71-0.01,1.25,0.76,1.96,0.81c1.09,0.07,2.18-0.18,3.24-0.47
		c0.77-0.21,1.62-0.43,2.16-1.01c0.61-0.67,0.97-1.6,1.08-2.49c0.08-0.63-0.15-1.32-0.54-1.82c-0.77-0.99-2.21-1.4-2.83-2.49
		c-0.29-0.51,0.6-1.12,0.47-1.69c-0.25-1.15-1.34-2.01-1.55-3.17c-0.1-0.55,0.73-0.99,0.67-1.55c-0.09-0.82-1.06-1.4-1.08-2.22
		c-0.01-0.39,1.09-0.22,1.01-0.61c-0.25-1.31-1.48-2.28-1.82-3.57c-0.12-0.45,0.13-1.06,0.54-1.28c0.7-0.37,1.67-0.66,2.36-0.27
		c1.82,1.02,2.92,3.03,4.65,4.18c1.05,0.7,2.31,1.16,3.57,1.28c0.76,0.07,1.82-0.06,2.16-0.74c0.35-0.69-0.82-1.46-0.67-2.23
		c0.12-0.64,1.26-0.77,1.35-1.42c0.07-0.51-1.37-0.79-1.01-1.15c0.48-0.48,1.38,0.35,2.02,0.13c1.21-0.41,2.06-1.65,3.3-1.95
		c0.53-0.13,0.9,0.63,1.42,0.81c1.01,0.36,2.04,0.9,3.1,0.81c0.89-0.08,1.52-0.98,2.36-1.28c0.82-0.29,1.93,0.13,2.56-0.47
		c0.58-0.55,0.07-1.63,0.4-2.36c0.19-0.42,0.71-1.16,1.08-0.88c0.56,0.44,0.54,1.38,0.47,2.09c-0.08,0.86-0.79,1.57-0.88,2.43
		c-0.03,0.3,0.53,0.44,0.54,0.74c0.02,0.65-0.75,1.3-0.47,1.89c0.51,1.08,1.44,2.1,2.56,2.49c1.19,0.42,2.59,0.16,3.78-0.27
		c1.2-0.43,2.49-1.11,3.1-2.22c0.48-0.87-0.87-2.17-0.27-2.97c0.51-0.68,1.78,0.27,2.56-0.07c0.85-0.36,1.89-0.98,2.02-1.89
		c0.16-1.11-1.3-1.98-1.28-3.1c0.03-1.34,0.4-2.9,1.42-3.78c1.63-1.41,4.12-1.4,5.93-2.56c0.34-0.22,0.15-0.87-0.07-1.21
		c-0.24-0.39-0.88-0.37-1.15-0.74c-0.81-1.12-1.61-2.32-2.02-3.64c-0.15-0.49-0.03-1.21,0.4-1.48c0.59-0.37,1.48,0.28,2.09-0.07
		c0.57-0.32,0.43-1.38,1.01-1.69c0.9-0.48,2.15,0.04,3.03-0.47c1.41-0.8,2.6-2.01,3.57-3.3c0.27-0.36,0.11-0.93-0.07-1.35
		c-0.18-0.44-0.88-0.61-0.94-1.08c-0.11-0.75-0.1-1.72,0.47-2.22c0.95-0.84,2.62-0.5,3.57-1.35c0.63-0.56,0.12-1.8,0.67-2.43
		c0.41-0.47,1.52,0.14,1.82-0.4c0.8-1.48,1.25-3.25,1.08-4.92c-0.08-0.81-0.95-1.56-1.75-1.69c-1.36-0.21-2.72,0.44-4.05,0.81
		c-0.38,0.11-0.62,0.54-1.01,0.61c-0.62,0.1-1.6,0.42-1.89-0.13c-0.3-0.57,0.73-1.08,0.94-1.69c0.16-0.45-0.09-1,0.13-1.42
		c0.68-1.27,1.9-2.2,2.49-3.51c0.38-0.82,1.03-2.11,0.34-2.7c-1.23-1.04-3.11-1.11-4.72-1.01c-1.04,0.07-1.75,1.21-2.76,1.48
		c-1.4,0.37-3.09-0.36-4.31,0.4c-0.84,0.52-0.33,2.01-0.88,2.83c-0.28,0.43-1.06,0.24-1.42,0.61c-0.39,0.4-0.63,0.99-0.67,1.55
		c-0.09,1.21,1.11,2.76,0.27,3.64c-0.74,0.78-2.29,0.02-3.17-0.61c-0.8-0.57-0.53-2.09-1.35-2.63c-1.07-0.71-2.58-1.21-3.78-0.74
		c-1.66,0.65-2.79,2.28-3.84,3.71c-0.62,0.85-0.06,2.71-1.08,2.97c-1.44,0.36-2.7-2.14-4.11-1.69c-1.83,0.59-2.96,2.57-3.91,4.25
		c-0.4,0.71,0.66,1.81,0.13,2.43c-0.53,0.62-1.67-0.04-2.43,0.27c-0.83,0.34-1.27,1.46-2.16,1.62c-0.72,0.13-1.29-0.94-2.02-0.88
		c-0.69,0.06-1.04,0.97-1.69,1.21c-1.43,0.55-3.05,0.52-4.45,1.15c-0.68,0.3-0.92,1.27-1.62,1.55c-0.65,0.26-1.45-0.35-2.09-0.07
		c-0.9,0.4-1.24,2.07-2.22,1.96c-2.3-0.27-3.96-3.01-6.27-2.97c-1.63,0.03-2.11,2.85-3.71,3.17c-0.93,0.19-1.09-1.83-2.02-2.02
		c-1.08-0.22-2.1,0.67-3.17,0.94c-1.55,0.39-3.9-0.34-3.98-1.69c-0.15-2.58,3.22-7.69,8.49-9.37c2.63-0.84,5.58,0.6,8.29,0.07
		c1.59-0.31,3.21-1.19,4.18-2.49c0.59-0.8,0.26-2.06-0.13-2.97c-0.55-1.24-2.26-1.84-2.56-3.17c-0.2-0.89,0.89-1.6,1.28-2.43
		c0.42-0.88,0.19-2.5,1.15-2.7c0.89-0.19,1.46,1.23,1.75,2.09c0.15,0.45-0.51,0.82-0.61,1.28c-0.18,0.84-0.58,1.79-0.2,2.56
		c0.26,0.52,1.1,0.45,1.69,0.47c0.91,0.03,1.8-0.43,2.7-0.34c1.16,0.12,2.25,1.28,3.37,0.94c1.04-0.31,1.85-1.49,2.02-2.56
		c0.22-1.34-0.94-2.62-0.94-3.98c0-2.45,0.17-4.96,0.94-7.28c0.39-1.18,1.94-1.69,2.43-2.83c1.03-2.39,0.79-5.25,2.02-7.55
		c1.57-2.93,3.76-5.56,6.2-7.82c1.76-1.63,4.36-2.11,6.2-3.64c1.36-1.12,1.75-3.24,3.24-4.18c2.78-1.75,6.48-1.74,9.17-3.64
		c1.95-1.38,3.14-3.66,4.18-5.8c0.62-1.27,1.39-2.97,0.67-4.18c-0.49-0.83-2.07-0.05-2.83,0.54c-2.27,1.74-3.68,4.44-5.93,6.2
		c-2.91,2.27-6.28,3.89-9.44,5.8c-1.83,1.1-3.89,1.86-5.53,3.24c-1.52,1.27-2.31,3.25-3.78,4.58c-3.05,2.78-6.11,5.67-9.71,7.69
		c-2.45,1.37-5.69,0.85-8.09,2.29c-1.22,0.73-0.68,3.3-2.02,3.78c-1.7,0.6-3.49-1.54-5.26-1.21c-1.07,0.2-1.57,1.57-2.02,2.56
		c-0.82,1.8-0.55,4.1-1.75,5.66c-0.91,1.18-2.94,0.9-4.05,1.89c-1.98,1.77-3.03,4.42-4.99,6.2c-1.6,1.45-3.43,2.85-5.53,3.37
		c-1.59,0.39-3.51,0.13-4.85-0.81c-1.14-0.79-0.99-2.62-1.75-3.78c-1.05-1.6-1.88-3.69-3.64-4.45c-1.09-0.47-2.3,0.76-3.24,1.48
		c-1.48,1.15-2.1,3.55-3.91,4.05c-2.07,0.57-4.22-1.58-6.34-1.21c-1.35,0.23-1.6,2.78-2.97,2.83c-1.48,0.06-3.03-1.21-3.64-2.56
		c-0.56-1.25,0.81-2.69,0.67-4.05c-0.14-1.34-1.77-2.46-1.48-3.78c0.63-2.87,2.96-5.09,4.05-7.82c0.42-1.05,1.16-2.53,0.4-3.37
		c-0.6-0.68-1.67,0.79-2.56,0.94c-2,0.34-4.2,1.33-6.07,0.54c-1.51-0.63-2.7-2.55-2.56-4.18c0.11-1.25,2.48-1.06,3.1-2.16
		c0.71-1.26-0.07-3,0.54-4.31c0.33-0.71,1.24-1.19,2.02-1.21c1.22-0.03,2.34,1.46,3.51,1.08c1.42-0.46,1.71-2.7,3.1-3.24
		c1.76-0.68,3.92,0.59,5.66-0.13c0.83-0.34,0.89-1.67,0.81-2.56c-0.19-2.04-1.93-3.91-1.62-5.93c0.17-1.12,2.24-0.92,2.83-1.89
		c0.59-0.96-0.18-2.4,0.4-3.37c0.94-1.55,2.35-2.86,3.91-3.78c1.98-1.15,4.97-0.57,6.47-2.29c1.15-1.32-0.15-3.53,0.13-5.26
		c0.35-2.08,0.73-4.23,1.75-6.07c0.38-0.69,1.69-0.31,2.16-0.94c1.32-1.77,1.36-4.41,2.97-5.93c1.11-1.05,2.93-1.15,4.45-1.08
		c1.39,0.07,2.52,1.48,3.91,1.48c0.8,0,1.1-1.61,1.89-1.48c1.07,0.17,1.35,2.08,2.43,2.16c1.26,0.09,2.92-0.57,3.37-1.75
		c0.72-1.89-0.56-4.05-0.4-6.07c0.03-0.41,0.56-0.97,0.94-0.81c1.4,0.57,2.4,1.84,3.64,2.7c1.68,1.16,3.21,2.65,5.12,3.37
		c0.85,0.32,2.15,0.32,2.7-0.4c1.63-2.15,1.84-5.11,3.24-7.42c1.06-1.74,2.25-3.62,4.05-4.58c2.27-1.21,5.43-0.16,7.55-1.62
		c2.92-2.01,4.5-5.48,6.74-8.23c1.35-1.66,2.39-3.63,4.05-4.99c1.43-1.17,3.24-3.01,4.99-2.43c1.27,0.42-1.49,2.22-2.16,3.37
		c-0.86,1.5-3.25,3.06-2.43,4.58c0.7,1.31,2.95-0.5,4.31-1.08c1.23-0.52,2.35-3.02,3.37-2.16c1.01,0.86-0.73,2.65-1.62,3.64
		c-1.87,2.09-4.11,3.87-6.47,5.39c-1.11,0.72-2.8,0.33-3.78,1.21c-1.07,0.97-0.86,2.89-1.89,3.91c-2.38,2.38-5.69,3.7-8.09,6.07
		c-0.92,0.9-1.67,2.22-1.62,3.51c0.03,0.6,1.17-0.28,1.75-0.4c1.12-0.24,2.23-0.72,3.37-0.67c1.17,0.05,2.22,1.16,3.37,0.94
		c1.45-0.27,2.3-2.35,3.78-2.29c0.83,0.03-0.1,1.72-0.54,2.43c-1.13,1.82-2.93,3.16-4.05,4.99c-0.62,1.01-2.21,3.04-1.08,3.37
		c1.82,0.53,3.74-1.03,5.26-2.16c2.68-1.98,4.28-5.31,7.15-7.01c1.51-0.9-2.13,2.84-2.83,4.45c-0.27,0.62-0.46,1.53,0,2.02
		c0.46,0.49,1.38,0.34,2.02,0.13c1.76-0.57,3.82-0.99,4.99-2.43c2.32-2.85,2.86-6.84,4.99-9.84c0.45-0.63,2.44-1.17,2.29-0.4
		c-0.6,3.22-3.18,5.83-3.91,9.03c-0.14,0.63,1.04,1.37,1.62,1.08c3.09-1.59,5.93-3.72,8.36-6.2c2.55-2.61,4.07-6.09,6.4-8.9
		c1.17-1.41,2.51-2.71,4.05-3.71c0.59-0.38,1.44,0,2.09-0.27c1.25-0.51,2.17-1.82,3.51-2.02c1.45-0.22,2.88,1.1,4.32,0.81
		c1.47-0.29,2.83-1.26,3.78-2.43c0.7-0.86,0.08-2.4,0.81-3.24c1.46-1.68,4.03-2.16,5.39-3.91c0.42-0.54-0.32-1.54-0.94-1.82
		c-1.65-0.73-3.53-1.15-5.33-0.94c-1.16,0.13-1.85,1.55-2.97,1.89c-0.9,0.27-2.03-0.64-2.83-0.13c-2.33,1.46-3.63,4.26-6,5.66
		c-0.55,0.32-1.26-0.66-1.42-1.28c-0.33-1.31-0.29-2.74,0.07-4.05c0.46-1.7,1.32-3.3,2.32-4.75c0.61-0.88,1.45-1.67,2.43-2.09
		c3.12-1.34,6.36-2.56,9.71-3.1c1.64-0.26,3.39,0.11,4.92,0.74c0.1,0.04,0.41,3.35,2.7,2.49c1.02-0.38,1.03-1.95,1.75-2.76
		c0.67-0.75,1.99-0.95,2.36-1.89c0.48-1.21,0.3-2.66-0.07-3.91c-0.08-0.28-1.11-0.59-1.77-0.71c-1.76-0.3-3.25,1.19-4.1,1.38
		c-0.54,0.12-1.25-0.14-1.55-0.61c-0.2-0.3,0.23-0.76,0.54-0.94c0.6-0.36,5.82-1.91,7.01-2.36c3.04-1.16,5.92-2.86,9.1-3.57
		c1.14-0.26,2.28,0.92,3.44,0.74c1.07-0.16,1.7-1.49,2.76-1.69c0.62-0.11,1.4,0.31,1.68,0.88c0.62,1.23-0.16,3.07,0.81,4.05
		c2.14,2.15,5.51,2.68,7.82,4.65c1.29,1.1,1.48,3.13,2.7,4.32c1.1,1.07,2.57,2.67,4.05,2.22c1.08-0.33,0.06-2.29-0.27-3.37
		c-0.74-2.42-2.49-4.52-2.9-7.01c-0.27-1.63,1.1-3.21,0.94-4.85c-0.12-1.26-2.02-2.13-1.75-3.37c0.44-2.04,2.92-3.15,3.57-5.12
		c0.45-1.35,0.17-2.97-0.47-4.25c-0.37-0.75-1.39-1.06-2.22-1.15c-1.33-0.13-2.64,0.55-3.98,0.54c-2.17-0.01-4.35-1.05-6.47-0.61
		c-1.73,0.36-3.12,1.73-4.45,2.9c-0.85,0.75-1,2.16-1.96,2.76c-1.89,1.21-4.31,1.4-6.27,2.49c-1.38,0.77-2.21,2.37-3.64,3.03
		c-3.06,1.43-6.35,2.38-9.64,3.17c-3.74,0.9-7.55,1.65-11.39,1.89c-0.67,0.04-1.3-0.53-1.69-1.08c-0.23-0.33-0.25-0.96,0.07-1.21
		c0.88-0.71,2.3-0.55,3.1-1.35c1.12-1.12,1.89-2.6,2.36-4.11c0.43-1.4,1.44-3.5,0.27-4.38c-1.45-1.08-3.74-0.19-5.39,0.54
		c-1.32,0.59-2.22,1.93-2.97,3.17c-0.34,0.56,0,1.32-0.13,1.96c-0.09,0.45-0.1,1.14-0.54,1.28c-1.7,0.55-3.68-0.09-5.33,0.61
		c-2.89,1.23-5.23,3.5-7.96,5.06c-2.36,1.35-4.76,2.64-7.28,3.64c-2.93,1.16-5.93,2.29-9.03,2.83c-1,0.17-2.16-0.12-2.97-0.74
		c-0.41-0.32,0.21-1.08,0-1.55c-0.25-0.55-1.45-0.7-1.28-1.28c0.55-1.92,2.43-3.24,3.1-5.12c0.26-0.71,0.12-1.75-0.47-2.22
		c-0.51-0.41-1.35,0-1.96,0.27c-2.51,1.12-5.05,2.25-7.28,3.84c-1.57,1.12-2.47,2.99-3.98,4.18c-0.78,0.62-1.79,0.91-2.76,1.15
		c-0.22,0.05-0.56-0.11-0.61-0.34c-0.09-0.49,0.38-0.99,0.27-1.48c-0.13-0.57-0.47-1.14-0.94-1.48c-0.45-0.32-1.13-0.59-1.62-0.34
		c-1.19,0.61-2.13,1.66-2.97,2.7c-0.53,0.66-0.35,1.87-1.08,2.29c-1.96,1.12-4.49,0.94-6.47,2.02c-0.76,0.41-0.7,1.65-1.35,2.22
		c-0.28,0.25-1.03,0.36-1.15,0c-0.2-0.6,0.48-1.19,0.54-1.82c0.04-0.39-0.52-0.85-0.27-1.15c1.46-1.73,3.62-2.77,5.06-4.52
		c0.27-0.32,0.05-1.05-0.34-1.21c-0.8-0.35-1.84-0.45-2.63-0.07c-4.86,2.36-9.55,5.12-14.02,8.16c-0.51,0.34-0.63,1.15-0.54,1.75
		c0.07,0.47,1.18,0.66,0.94,1.08c-0.83,1.45-2.56,2.18-3.57,3.51c-0.43,0.56-0.24,1.46-0.67,2.02c-0.42,0.54-1.42,0.48-1.75,1.08
		c-0.98,1.79-1.37,3.86-2.02,5.8c-0.26,0.78-0.27,1.68-0.74,2.36c-0.56,0.8-1.59,1.15-2.22,1.89c-1.74,2.02-2.81,4.64-4.85,6.34
		c-1.03,0.86-2.57,0.98-3.91,0.94c-0.51-0.01-0.59-0.95-1.08-1.08c-1.02-0.26-2.17,0.34-3.17,0c-0.4-0.14-0.6-0.83-0.4-1.21
		c1.18-2.33,2.84-4.39,4.32-6.54c1.45-2.12,3.14-4.07,4.45-6.27c0.21-0.35,0.29-0.94,0-1.21c-0.28-0.26-0.82-0.08-1.15,0.13
		c-0.76,0.5-1.25,1.32-1.96,1.89c-0.4,0.32-1,0.36-1.35,0.74c-0.34,0.38-0.28,1.02-0.61,1.42c-2.05,2.44-4.47,4.54-6.47,7.01
		c-1.38,1.7-2,4.02-3.64,5.46c-0.77,0.67-2.11-0.03-3.03,0.4c-2.19,1.03-3.91,2.94-6.14,3.91c-0.36,0.16-0.88-0.49-0.81-0.88
		c0.13-0.68,0.99-0.99,1.28-1.62c0.58-1.27,0.4-2.9,1.28-3.98c0.33-0.4,0.95,0.91,1.42,0.67c1.45-0.73,2.65-1.95,3.64-3.24
		c2.54-3.33,4.41-7.14,6.88-10.52c2.17-2.96,4.82-5.55,7.01-8.5c0.92-1.24,1.65-2.64,2.29-4.05c0.1-0.21,0.09-0.69-0.13-0.67
		c-1.14,0.07-2.17,0.91-3.3,0.88c-0.4-0.01-0.85-0.65-0.67-1.01c1.76-3.63,4.3-6.83,6.2-10.38c0.34-0.63,0.78-1.45,0.47-2.09
		c-0.23-0.47-1.07-0.32-1.55-0.13c-1.29,0.51-2.56,1.21-3.57,2.16c-3.24,3.01-5.72,6.8-9.1,9.64c-1.35,1.13-3.54,0.92-4.85,2.09
		c-2.94,2.62-4.6,6.5-7.62,9.03c-2.98,2.51-6.52,4.35-10.11,5.87c-0.63,0.27-1.49-0.25-1.89-0.81c-0.3-0.42-0.05-1.09,0.2-1.55
		c0.94-1.7,2.46-3.04,3.3-4.79c0.62-1.29,0.17-3.02,1.01-4.18c1.24-1.71,3.47-2.45,4.92-3.98c1.87-1.98,3.47-4.21,4.99-6.47
		c0.45-0.66,1.46-1.68,0.88-2.22c-0.68-0.64-1.98-0.04-2.76,0.47c-3.18,2.06-6.01,4.63-8.9,7.08c-2.55,2.16-5.28,4.17-7.42,6.74
		c-1.21,1.45-0.98,3.9-2.43,5.12c-1.42,1.2-3.89,0.39-5.39,1.48c-1.82,1.32-2.53,3.74-4.05,5.39c-1.49,1.62-3.66,2.58-4.92,4.38
		C131.75,380.29,130.48,387.93,127.15,397L127.15,397z"/>
	<radialGradient id="SVGID_8_" cx="277.5091" cy="345.045" r="188.8987" gradientUnits="userSpaceOnUse">
		<stop  offset="0" style="stop-color:#9ACC62"/>
		<stop  offset="1" style="stop-color:#010101"/>
	</radialGradient>
	<path class="st7" d="M180.42,377.75c-0.77,0.67-2.11-0.03-3.03,0.4c-2.19,1.03-3.91,2.94-6.14,3.91c-0.36,0.16-0.88-0.49-0.81-0.88
		c0.13-0.68,0.99-0.99,1.28-1.62c0.58-1.27,0.4-2.9,1.28-3.98c0.33-0.4,0.95,0.91,1.42,0.67c1.45-0.73,2.65-1.95,3.64-3.24
		c2.54-3.33,4.41-7.14,6.88-10.52c2.17-2.96,4.82-5.55,7.01-8.5c0.92-1.24,1.65-2.64,2.29-4.05c0.1-0.21,0.09-0.69-0.13-0.67
		c-1.14,0.07-2.17,0.91-3.3,0.88c-0.4-0.01-0.85-0.65-0.67-1.01c1.76-3.63,4.3-6.83,6.2-10.38c0.34-0.63,0.78-1.45,0.47-2.09
		c-0.23-0.47-1.07-0.32-1.55-0.13c-1.29,0.51-2.56,1.21-3.57,2.16c-3.24,3.01-5.72,6.8-9.1,9.64c-1.35,1.13-3.54,0.92-4.85,2.09
		c-2.94,2.62-4.6,6.5-7.62,9.03c-2.98,2.51-6.52,4.35-10.11,5.87c-0.63,0.27-1.49-0.25-1.89-0.81c-0.3-0.42-0.05-1.09,0.2-1.55
		c0.94-1.7,2.46-3.04,3.3-4.79c0.62-1.29,0.17-3.02,1.01-4.18c1.24-1.71,3.47-2.45,4.92-3.98c1.87-1.98,3.47-4.21,4.99-6.47
		c0.45-0.66,1.46-1.68,0.88-2.22c-0.68-0.64-1.98-0.04-2.76,0.47c-3.18,2.06-6.01,4.63-8.9,7.08c-1.34,1.14-2.73,2.23-4.06,3.39
		c-0.19,0.71-0.39,1.41-0.63,2.1c-0.55,1.6-1.13,3.2-1.89,4.72c-0.51,1.01-1.2,1.93-1.89,2.83c-1.56,2.06-3.67,3.77-4.85,6.07
		c-1.24,2.42-1.95,5.13-2.29,7.82c-0.34,2.72,0.24,5.48,0.27,8.23c0.02,1.75,0.19,3.54-0.13,5.26c-0.31,1.65-1.12,3.17-1.75,4.72
		c-0.67,1.64-1.71,3.14-2.16,4.85c-0.42,1.61-0.75,3.36-0.4,4.99c0.44,2.09,2,3.78,2.7,5.8c0.57,1.65,1.09,3.38,1.08,5.12
		c-0.03,3.84-1.21,7.62-1.21,11.46c0,0.99,0.59,1.94,1.21,2.7c0.5,0.61,1.26,1.03,2.02,1.21c1.6,0.39,3.36-0.06,4.92,0.47
		c0.5,0.17,0.7,0.89,0.67,1.42c-0.05,1.01-0.4,2.01-0.88,2.9c-0.49,0.92-1.48,1.51-1.96,2.43c-0.37,0.72-0.38,1.57-0.54,2.36
		c-0.02,0.09-0.08,0.23,0,0.27c0.82,0.39,1.8,0.45,2.56,0.94c0.98,0.63,2.37,1.21,2.56,2.36c0.2,1.23-1.53,2.13-1.62,3.37
		c-0.07,0.96,0.38,2.14,1.21,2.63c1.98,1.16,4.38,1.39,6.61,1.96c0.41,0.11,1.12-0.33,1.28,0.07c0.35,0.86-0.53,1.93-0.13,2.76
		c0.43,0.91,2.05,0.93,2.36,1.89c0.33,1.03-0.77,2.08-0.74,3.17c0.02,0.99,0.3,2.03,0.88,2.83c1.53,2.11,3.35,4.03,5.33,5.73
		c1.27,1.09,2.65,2.46,4.31,2.56c1.67,0.1,2.92-1.88,4.58-2.02c1.16-0.1,2.84,0.25,3.24,1.35c0.62,1.71-1.53,3.73-0.81,5.39
		c0.48,1.1,2.31,0.73,3.51,0.81c1.71,0.11,3.68-1.18,5.12-0.27c1.39,0.87,1.01,3.13,1.75,4.58c1.1,2.15,1.74,4.89,3.78,6.2
		c2.72,1.75,6.28,1.6,9.44,2.29c1.38,0.3,3.05-0.18,4.18,0.67c1.48,1.12,1.51,3.57,2.97,4.72c1.24,0.98,3.07,1.67,4.58,1.21
		c3-0.9,5.1-3.71,7.96-4.99c2.02-0.91,4.28-1.17,6.47-1.48c1.87-0.27,3.79-0.51,5.66-0.27c2.4,0.31,4.6,2.13,7.01,1.89
		c3.21-0.32,6.08-2.21,9.03-3.51c4.01-1.76,7.95-3.69,11.87-5.66c0.81-0.41,1.45-1.13,2.29-1.48c3.39-1.42,6.89-2.6,10.36-3.84
		c0.02-0.43,0.05-0.85,0.31-1.14c0.41-0.47,1.52,0.14,1.82-0.4c0.8-1.48,1.25-3.25,1.08-4.92c-0.08-0.81-0.95-1.56-1.75-1.69
		c-1.36-0.21-2.72,0.44-4.05,0.81c-0.38,0.11-0.62,0.54-1.01,0.61c-0.62,0.1-1.6,0.42-1.89-0.13c-0.3-0.57,0.73-1.08,0.94-1.69
		c0.16-0.45-0.09-1,0.13-1.42c0.68-1.27,1.9-2.2,2.49-3.51c0.38-0.82,1.03-2.11,0.34-2.7c-1.23-1.04-3.11-1.11-4.72-1.01
		c-1.04,0.07-1.75,1.21-2.76,1.48c-1.4,0.37-3.09-0.36-4.31,0.4c-0.84,0.52-0.33,2.01-0.88,2.83c-0.28,0.43-1.06,0.24-1.42,0.61
		c-0.39,0.4-0.63,0.99-0.67,1.55c-0.09,1.21,1.11,2.76,0.27,3.64c-0.74,0.78-2.29,0.02-3.17-0.61c-0.8-0.57-0.53-2.09-1.35-2.63
		c-1.07-0.71-2.58-1.21-3.78-0.74c-1.66,0.65-2.79,2.28-3.84,3.71c-0.62,0.85-0.06,2.71-1.08,2.97c-1.44,0.36-2.7-2.14-4.11-1.69
		c-1.83,0.59-2.96,2.57-3.91,4.25c-0.4,0.71,0.66,1.81,0.13,2.43c-0.53,0.62-1.67-0.04-2.43,0.27c-0.83,0.34-1.27,1.46-2.16,1.62
		c-0.72,0.13-1.29-0.94-2.02-0.88c-0.69,0.06-1.04,0.97-1.69,1.21c-1.43,0.55-3.05,0.52-4.45,1.15c-0.68,0.3-0.92,1.27-1.62,1.55
		c-0.65,0.26-1.45-0.35-2.09-0.07c-0.9,0.4-1.24,2.07-2.22,1.96c-2.3-0.27-3.96-3.01-6.27-2.97c-1.63,0.03-2.11,2.85-3.71,3.17
		c-0.93,0.19-1.09-1.83-2.02-2.02c-1.08-0.22-2.1,0.67-3.17,0.94c-1.55,0.39-3.9-0.34-3.98-1.69c-0.15-2.58,3.22-7.69,8.49-9.37
		c2.63-0.84,5.58,0.6,8.29,0.07c1.59-0.31,3.21-1.19,4.18-2.49c0.59-0.8,0.26-2.06-0.13-2.97c-0.55-1.24-2.26-1.84-2.56-3.17
		c-0.2-0.89,0.89-1.6,1.28-2.43c0.42-0.88,0.19-2.5,1.15-2.7c0.89-0.19,1.46,1.23,1.75,2.09c0.15,0.45-0.51,0.82-0.61,1.28
		c-0.18,0.84-0.58,1.79-0.2,2.56c0.26,0.52,1.1,0.45,1.69,0.47c0.91,0.03,1.8-0.43,2.7-0.34c1.16,0.12,2.25,1.28,3.37,0.94
		c1.04-0.31,1.85-1.49,2.02-2.56c0.22-1.34-0.94-2.62-0.94-3.98c0-2.45,0.17-4.96,0.94-7.28c0.39-1.18,1.94-1.69,2.43-2.83
		c1.03-2.39,0.79-5.25,2.02-7.55c1.57-2.93,3.76-5.56,6.2-7.82c1.76-1.63,4.36-2.11,6.2-3.64c1.36-1.12,1.75-3.24,3.24-4.18
		c2.78-1.75,6.48-1.74,9.17-3.64c1.95-1.38,3.14-3.66,4.18-5.8c0.62-1.27,1.39-2.97,0.67-4.18c-0.49-0.83-2.07-0.05-2.83,0.54
		c-2.27,1.74-3.68,4.44-5.93,6.2c-2.91,2.27-6.28,3.89-9.44,5.8c-1.83,1.1-3.89,1.86-5.53,3.24c-1.52,1.27-2.31,3.25-3.78,4.58
		c-3.05,2.78-6.11,5.67-9.71,7.69c-2.45,1.37-5.69,0.85-8.09,2.29c-1.22,0.73-0.68,3.3-2.02,3.78c-1.7,0.6-3.49-1.54-5.26-1.21
		c-1.07,0.2-1.57,1.57-2.02,2.56c-0.82,1.8-0.55,4.1-1.75,5.66c-0.91,1.18-2.94,0.9-4.05,1.89c-1.98,1.77-3.03,4.42-4.99,6.2
		c-1.6,1.45-3.43,2.85-5.53,3.37c-1.59,0.39-3.51,0.13-4.85-0.81c-1.14-0.79-0.99-2.62-1.75-3.78c-1.05-1.6-1.88-3.69-3.64-4.45
		c-1.09-0.47-2.3,0.76-3.24,1.48c-1.48,1.15-2.1,3.55-3.91,4.05c-2.07,0.57-4.22-1.58-6.34-1.21c-1.35,0.23-1.6,2.78-2.97,2.83
		c-1.48,0.06-3.03-1.21-3.64-2.56c-0.56-1.25,0.81-2.69,0.67-4.05c-0.14-1.34-1.77-2.46-1.48-3.78c0.63-2.87,2.96-5.09,4.05-7.82
		c0.42-1.05,1.16-2.53,0.4-3.37c-0.6-0.68-1.67,0.79-2.56,0.94c-2,0.34-4.2,1.33-6.07,0.54c-1.51-0.63-2.7-2.55-2.56-4.18
		c0.11-1.25,2.48-1.06,3.1-2.16c0.71-1.26-0.07-3,0.54-4.31c0.33-0.71,1.24-1.19,2.02-1.21c1.22-0.03,2.34,1.46,3.51,1.08
		c1.42-0.46,1.71-2.7,3.1-3.24c1.76-0.68,3.92,0.59,5.66-0.13c0.83-0.34,0.89-1.67,0.81-2.56c-0.19-2.04-1.93-3.91-1.62-5.93
		c0.17-1.12,2.24-0.92,2.83-1.89c0.59-0.96-0.18-2.4,0.4-3.37c0.94-1.55,2.35-2.86,3.91-3.78c1.98-1.15,4.97-0.57,6.47-2.29
		c1.15-1.32-0.15-3.53,0.13-5.26c0.35-2.08,0.73-4.23,1.75-6.07c0.38-0.69,1.69-0.31,2.16-0.94c1.32-1.77,1.36-4.41,2.97-5.93
		c1.11-1.05,2.93-1.15,4.45-1.08c1.39,0.07,2.52,1.48,3.91,1.48c0.8,0,1.1-1.61,1.89-1.48c1.07,0.17,1.35,2.08,2.43,2.16
		c1.26,0.09,2.92-0.57,3.37-1.75c0.72-1.89-0.56-4.05-0.4-6.07c0.03-0.41,0.56-0.97,0.94-0.81c1.4,0.57,2.4,1.84,3.64,2.7
		c1.68,1.16,3.21,2.65,5.12,3.37c0.85,0.32,2.15,0.32,2.7-0.4c1.63-2.15,1.84-5.11,3.24-7.42c1.06-1.74,2.25-3.62,4.05-4.58
		c2.27-1.21,5.43-0.16,7.55-1.62c2.92-2.01,4.5-5.48,6.74-8.23c1.35-1.66,2.39-3.63,4.05-4.99c1.43-1.17,3.24-3.01,4.99-2.43
		c1.27,0.42-1.49,2.22-2.16,3.37c-0.86,1.5-3.25,3.06-2.43,4.58c0.7,1.31,2.95-0.5,4.31-1.08c1.23-0.52,2.35-3.02,3.37-2.16
		c1.01,0.86-0.73,2.65-1.62,3.64c-1.87,2.09-4.11,3.87-6.47,5.39c-1.11,0.72-2.8,0.33-3.78,1.21c-1.07,0.97-0.86,2.89-1.89,3.91
		c-2.38,2.38-5.69,3.7-8.09,6.07c-0.92,0.9-1.67,2.22-1.62,3.51c0.03,0.6,1.17-0.28,1.75-0.4c1.12-0.24,2.23-0.72,3.37-0.67
		c1.17,0.05,2.22,1.16,3.37,0.94c1.45-0.27,2.3-2.35,3.78-2.29c0.83,0.03-0.1,1.72-0.54,2.43c-1.13,1.82-2.93,3.16-4.05,4.99
		c-0.62,1.01-2.21,3.04-1.08,3.37c1.82,0.53,3.74-1.03,5.26-2.16c2.68-1.98,4.28-5.31,7.15-7.01c1.51-0.9-2.13,2.84-2.83,4.45
		c-0.27,0.62-0.46,1.53,0,2.02c0.46,0.49,1.38,0.34,2.02,0.13c1.76-0.57,3.82-0.99,4.99-2.43c2.32-2.85,2.86-6.84,4.99-9.84
		c0.45-0.63,2.44-1.17,2.29-0.4c-0.6,3.22-3.18,5.83-3.91,9.03c-0.14,0.63,1.04,1.37,1.62,1.08c3.09-1.59,5.93-3.72,8.36-6.2
		c2.55-2.61,4.07-6.09,6.4-8.9c1.17-1.41,2.51-2.71,4.05-3.71c0.59-0.38,1.44,0,2.09-0.27c1.25-0.51,2.17-1.82,3.51-2.02
		c1.45-0.22,2.88,1.1,4.32,0.81c1.47-0.29,2.83-1.26,3.78-2.43c0.7-0.86,0.08-2.4,0.81-3.24c1.46-1.68,4.03-2.16,5.39-3.91
		c0.42-0.54-0.32-1.54-0.94-1.82c-1.65-0.73-3.53-1.15-5.33-0.94c-1.16,0.13-1.85,1.55-2.97,1.89c-0.9,0.27-2.03-0.64-2.83-0.13
		c-2.33,1.46-3.63,4.26-6,5.66c-0.55,0.32-1.26-0.66-1.42-1.28c-0.33-1.31-0.29-2.74,0.07-4.05c0.46-1.7,1.32-3.3,2.32-4.75
		c0.61-0.88,1.45-1.67,2.43-2.09c3.12-1.34,6.36-2.56,9.71-3.1c1.64-0.26,3.39,0.11,4.92,0.74c0.1,0.04,0.41,3.35,2.7,2.49
		c1.02-0.38,1.03-1.95,1.75-2.76c0.67-0.75,1.99-0.95,2.36-1.89c0.48-1.21,0.3-2.66-0.07-3.91c-0.08-0.28-1.11-0.59-1.77-0.71
		c-1.76-0.3-3.25,1.19-4.1,1.38c-0.54,0.12-1.25-0.14-1.55-0.61c-0.2-0.3,0.23-0.76,0.54-0.94c0.6-0.36,5.82-1.91,7.01-2.36
		c3.04-1.16,5.92-2.86,9.1-3.57c1.14-0.26,2.28,0.92,3.44,0.74c1.07-0.16,1.7-1.49,2.76-1.69c0.62-0.11,1.4,0.31,1.68,0.88
		c0.62,1.23-0.16,3.07,0.81,4.05c2.14,2.15,5.51,2.68,7.82,4.65c1.29,1.1,1.48,3.13,2.7,4.32c1.1,1.07,2.57,2.67,4.05,2.22
		c1.08-0.33,0.06-2.29-0.27-3.37c-0.74-2.42-2.49-4.52-2.9-7.01c-0.27-1.63,1.1-3.21,0.94-4.85c-0.12-1.26-2.02-2.13-1.75-3.37
		c0.44-2.04,2.92-3.15,3.57-5.12c0.45-1.35,0.17-2.97-0.47-4.25c-0.37-0.75-1.39-1.06-2.22-1.15c-1.33-0.13-2.64,0.55-3.98,0.54
		c-2.17-0.01-4.35-1.05-6.47-0.61c-1.73,0.36-3.12,1.73-4.45,2.9c-0.85,0.75-1,2.16-1.96,2.76c-1.89,1.21-4.31,1.4-6.27,2.49
		c-1.38,0.77-2.21,2.37-3.64,3.03c-3.06,1.43-6.35,2.38-9.64,3.17c-3.74,0.9-7.55,1.65-11.39,1.89c-0.67,0.04-1.3-0.53-1.69-1.08
		c-0.23-0.33-0.25-0.96,0.07-1.21c0.88-0.71,2.3-0.55,3.1-1.35c1.12-1.12,1.89-2.6,2.36-4.11c0.43-1.4,1.44-3.5,0.27-4.38
		c-1.45-1.08-3.74-0.19-5.39,0.54c-1.32,0.59-2.22,1.93-2.97,3.17c-0.34,0.56,0,1.32-0.13,1.96c-0.09,0.45-0.1,1.14-0.54,1.28
		c-1.7,0.55-3.68-0.09-5.33,0.61c-2.89,1.23-5.23,3.5-7.96,5.06c-2.36,1.35-4.76,2.64-7.28,3.64c-2.93,1.16-5.93,2.29-9.03,2.83
		c-1,0.17-2.16-0.12-2.97-0.74c-0.41-0.32,0.21-1.08,0-1.55c-0.25-0.55-1.45-0.7-1.28-1.28c0.55-1.92,2.43-3.24,3.1-5.12
		c0.26-0.71,0.12-1.75-0.47-2.22c-0.51-0.41-1.35,0-1.96,0.27c-2.51,1.12-5.05,2.25-7.28,3.84c-1.57,1.12-2.47,2.99-3.98,4.18
		c-0.78,0.62-1.79,0.91-2.76,1.15c-0.22,0.05-0.56-0.11-0.61-0.34c-0.09-0.49,0.38-0.99,0.27-1.48c-0.13-0.57-0.47-1.14-0.94-1.48
		c-0.45-0.32-1.13-0.59-1.62-0.34c-1.19,0.61-2.13,1.66-2.97,2.7c-0.53,0.66-0.35,1.87-1.08,2.29c-1.96,1.12-4.49,0.94-6.47,2.02
		c-0.76,0.41-0.7,1.65-1.35,2.22c-0.28,0.25-1.03,0.36-1.15,0c-0.2-0.6,0.48-1.19,0.54-1.82c0.04-0.39-0.52-0.85-0.27-1.15
		c1.46-1.73,3.62-2.77,5.06-4.52c0.27-0.32,0.05-1.05-0.34-1.21c-0.8-0.35-1.84-0.45-2.63-0.07c-4.86,2.36-9.55,5.12-14.02,8.16
		c-0.51,0.34-0.63,1.15-0.54,1.75c0.07,0.47,1.18,0.66,0.94,1.08c-0.83,1.45-2.56,2.18-3.57,3.51c-0.43,0.56-0.24,1.46-0.67,2.02
		c-0.42,0.54-1.42,0.48-1.75,1.08c-0.98,1.79-1.37,3.86-2.02,5.8c-0.26,0.78-0.27,1.68-0.74,2.36c-0.56,0.8-1.59,1.15-2.22,1.89
		c-1.74,2.02-2.81,4.64-4.85,6.34c-1.03,0.86-2.57,0.98-3.91,0.94c-0.51-0.01-0.59-0.95-1.08-1.08c-1.02-0.26-2.17,0.34-3.17,0
		c-0.4-0.14-0.6-0.83-0.4-1.21c1.18-2.33,2.84-4.39,4.32-6.54c1.45-2.12,3.14-4.07,4.45-6.27c0.21-0.35,0.29-0.94,0-1.21
		c-0.28-0.26-0.82-0.08-1.15,0.13c-0.76,0.5-1.25,1.32-1.96,1.89c-0.4,0.32-1,0.36-1.35,0.74c-0.34,0.38-0.28,1.02-0.61,1.42
		c-2.05,2.44-4.47,4.54-6.47,7.01C182.69,373.99,182.07,376.31,180.42,377.75L180.42,377.75z"/>
	<radialGradient id="SVGID_9_" cx="268.343" cy="326.7802" r="222.9689" gradientUnits="userSpaceOnUse">
		<stop  offset="0" style="stop-color:#A6DACE"/>
		<stop  offset="0.2252" style="stop-color:#99D5CA"/>
		<stop  offset="0.6325" style="stop-color:#77CBC0"/>
		<stop  offset="1" style="stop-color:#48C0B5"/>
	</radialGradient>
	<path class="st8" d="M250.57,355.14c2.88-1.23,5.2-6.32,10.52-4.85c0.94,0.26,1.76,5.77,7.28,3.1c3.89-1.88,6.77-5.41,10.52-7.55
		c7.91-4.51,10.43-0.31,3.24,7.82c-3.06,3.46-6.22,6.85-9.03,10.52c-0.63,0.81-1.21,1.8-1.21,2.83c0,1.07,0.81,1.98,1.21,2.97
		c0.92,2.28,1.62,2.19-1.21,4.18c-1.78,1.25-3.91,1.95-5.66,3.24c-1.51,1.11-3.08,2.3-4.05,3.91c-1.47,2.46-1.89,5.42-3.1,8.02
		c-0.34,0.72-0.76,1.4-1.21,2.06c0.25-0.19,0.48-0.41,0.68-0.66c2.32-2.85,2.86-6.84,4.99-9.84c0.45-0.63,2.44-1.17,2.29-0.4
		c-0.6,3.22-3.18,5.83-3.91,9.03c-0.14,0.63,1.04,1.37,1.62,1.08c3.09-1.59,5.93-3.72,8.36-6.2c2.55-2.61,4.07-6.09,6.4-8.9
		c1.17-1.41,2.51-2.71,4.05-3.71c0.59-0.38,1.44,0,2.09-0.27c1.25-0.51,2.17-1.82,3.51-2.02c1.45-0.22,2.88,1.1,4.32,0.81
		c1.47-0.29,2.83-1.26,3.78-2.43c0.7-0.86,0.08-2.4,0.81-3.24c1.46-1.68,4.03-2.16,5.39-3.91c0.42-0.54-0.32-1.54-0.94-1.82
		c-1.65-0.73-3.53-1.15-5.33-0.94c-1.16,0.13-1.85,1.55-2.97,1.89c-0.9,0.27-2.03-0.64-2.83-0.13c-2.33,1.46-3.63,4.26-6,5.66
		c-0.55,0.32-1.26-0.66-1.42-1.28c-0.33-1.31-0.29-2.74,0.07-4.05c0.46-1.7,1.32-3.3,2.32-4.75c0.61-0.88,1.45-1.67,2.43-2.09
		c3.12-1.34,6.36-2.56,9.71-3.1c1.64-0.26,3.39,0.11,4.92,0.74c0.1,0.04,0.41,3.35,2.7,2.49c1.02-0.38,1.03-1.95,1.75-2.76
		c0.67-0.75,1.99-0.95,2.36-1.89c0.48-1.21,0.3-2.66-0.07-3.91c-0.08-0.28-1.11-0.59-1.77-0.71c-1.76-0.3-3.25,1.19-4.1,1.38
		c-0.54,0.12-1.25-0.14-1.55-0.61c-0.2-0.3,0.23-0.76,0.54-0.94c0.6-0.36,5.82-1.91,7.01-2.36c3.04-1.16,5.92-2.86,9.1-3.57
		c1.14-0.26,2.28,0.92,3.44,0.74c1.07-0.16,1.7-1.49,2.76-1.69c0.62-0.11,1.4,0.31,1.68,0.88c0.62,1.23-0.16,3.07,0.81,4.05
		c2.14,2.15,5.51,2.68,7.82,4.65c1.29,1.1,1.48,3.13,2.7,4.32c1.1,1.07,2.57,2.67,4.05,2.22c1.08-0.33,0.06-2.29-0.27-3.37
		c-0.74-2.42-2.49-4.52-2.9-7.01c-0.27-1.63,1.1-3.21,0.94-4.85c-0.12-1.26-2.02-2.13-1.75-3.37c0.44-2.04,2.92-3.15,3.57-5.12
		c0.45-1.35,0.17-2.97-0.47-4.25c-0.37-0.75-1.39-1.06-2.22-1.15c-1.33-0.13-2.64,0.55-3.98,0.54c-2.17-0.01-4.35-1.05-6.47-0.61
		c-1.73,0.36-3.12,1.73-4.45,2.9c-0.85,0.75-1,2.16-1.96,2.76c-1.89,1.21-4.31,1.4-6.27,2.49c-1.38,0.77-2.21,2.37-3.64,3.03
		c-3.06,1.43-6.35,2.38-9.64,3.17c-3.74,0.9-7.55,1.65-11.39,1.89c-0.67,0.04-1.3-0.53-1.69-1.08c-0.23-0.33-0.25-0.96,0.07-1.21
		c0.88-0.71,2.3-0.55,3.1-1.35c1.12-1.12,1.89-2.6,2.36-4.11c0.43-1.4,1.44-3.5,0.27-4.38c-1.45-1.08-3.74-0.19-5.39,0.54
		c-1.32,0.59-2.22,1.93-2.97,3.17c-0.34,0.56,0,1.32-0.13,1.96c-0.09,0.45-0.1,1.14-0.54,1.28c-1.7,0.55-3.68-0.09-5.33,0.61
		c-2.89,1.23-5.23,3.5-7.96,5.06c-2.36,1.35-4.76,2.64-7.28,3.64c-2.93,1.16-5.93,2.29-9.03,2.83c-1,0.17-2.16-0.12-2.97-0.74
		c-0.41-0.32,0.21-1.08,0-1.55c-0.25-0.55-1.45-0.7-1.28-1.28c0.55-1.92,2.43-3.24,3.1-5.12c0.26-0.71,0.12-1.75-0.47-2.22
		c-0.51-0.41-1.35,0-1.96,0.27c-2.51,1.12-5.05,2.25-7.28,3.84c-1.57,1.12-2.47,2.99-3.98,4.18c-0.78,0.62-1.79,0.91-2.76,1.15
		c-0.22,0.05-0.56-0.11-0.61-0.34c-0.09-0.49,0.38-0.99,0.27-1.48c-0.13-0.57-0.47-1.14-0.94-1.48c-0.45-0.32-1.13-0.59-1.62-0.34
		c-1.19,0.61-2.13,1.66-2.97,2.7c-0.53,0.66-0.35,1.87-1.08,2.29c-1.96,1.12-4.49,0.94-6.47,2.02c-0.76,0.41-0.7,1.65-1.35,2.22
		c-0.28,0.25-1.03,0.36-1.15,0c-0.2-0.6,0.48-1.19,0.54-1.82c0.04-0.39-0.52-0.85-0.27-1.15c1.46-1.73,3.62-2.77,5.06-4.52
		c0.27-0.32,0.05-1.05-0.34-1.21c-0.8-0.35-1.84-0.45-2.63-0.07c-4.86,2.36-9.55,5.12-14.02,8.16c-0.51,0.34-0.63,1.15-0.54,1.75
		c0.07,0.47,1.18,0.66,0.94,1.08c-0.83,1.45-2.56,2.18-3.57,3.51c-0.43,0.56-0.24,1.46-0.67,2.02c-0.42,0.54-1.42,0.48-1.75,1.08
		c-0.98,1.79-1.37,3.86-2.02,5.8c-0.26,0.78-0.27,1.68-0.74,2.36c-0.56,0.8-1.59,1.15-2.22,1.89c-1.74,2.02-2.81,4.64-4.85,6.34
		c-0.22,0.19-0.47,0.34-0.74,0.46c0.71-0.16,1.44-0.3,2.04-0.69c1.14-0.72,1.87-1.98,2.97-2.76c0.36-0.25,0.92-0.52,1.28-0.27
		c0.41,0.28,0.53,0.94,0.4,1.42c-3.31,12.07,5.64-1.19,8.7-4.18c0.34-0.33,1.12,0.3,1.42-0.07c2.46-3.09,3.76-8.23,5.93-10.85
		c3.79-4.58-3.66,15.88,4.99,8.16c0.07-0.06,14.79-20,10.25-9.98c-1.23,2.71,2.42,0.57,3.51,0.13c1.63-0.66,2.45-2.9,4.18-3.24
		c1.11-0.21,1.7,1.83,2.83,1.89C245.66,356.62,248.26,356.13,250.57,355.14L250.57,355.14z M146.42,369.57
		c0.75-1.11,1.68-2.33,2.97-2.7c0.64-0.18,0.69,1.38,1.35,1.48c0.65,0.1,2.97-2.14,5.12-0.27c0.51,0.44,0.49,1.45,0.13,2.02
		c-1.21,1.98-3.39,3.26-4.58,5.26c-1.56,2.61,1.56,3.64,2.97,2.43c2.36-2.03,3.58-5.11,5.66-7.42c1.37-1.52,2.39-1.16,2.4-0.12
		c0.02,2.24-1.48,4.76-0.01,4.94c0.56,0.07,1.41-0.23,2.06-0.94c1.42-1.55,2.61-3.13,3.64-4.96c1.54-2.74,1.34-7.25,4.58-7.82
		c0.83-0.15,1.6,0.56,2.43,0.67c2.67,0.38,3.2-4.6,4.85-7.15c1.19-1.83,3.44,0.3,4.18,0.4c0.61,0.08,1.28-0.15,1.75-0.54
		c3.45-2.88,1.8-2.9,2.43-5.33c0.25-0.98,0.8-1.87,1.28-2.76c2.23-4.1,3.85-6.69,7.27-9.51c0.01-0.2-0.01-0.4-0.1-0.58
		c-0.23-0.47-1.07-0.32-1.55-0.13c-1.29,0.51-2.56,1.21-3.57,2.16c-3.24,3.01-5.72,6.8-9.1,9.64c-1.35,1.13-3.54,0.92-4.85,2.09
		c-2.94,2.62-4.6,6.5-7.62,9.03c-2.98,2.51-6.52,4.35-10.11,5.87c-0.63,0.27-1.49-0.25-1.89-0.81c-0.3-0.42-0.05-1.09,0.2-1.55
		c0.94-1.7,2.46-3.04,3.3-4.79c0.62-1.29,0.17-3.02,1.01-4.18c1.24-1.71,3.47-2.45,4.92-3.98c1.87-1.98,3.47-4.21,4.99-6.47
		c0.45-0.66,1.46-1.68,0.88-2.22c-0.68-0.64-1.98-0.04-2.76,0.47c-3.18,2.06-6.01,4.63-8.9,7.08c-2.55,2.16-5.28,4.17-7.42,6.74
		c-1.21,1.45-0.98,3.9-2.43,5.12c-1.42,1.2-3.89,0.39-5.39,1.48c-1.82,1.32-2.53,3.74-4.05,5.39c-1.49,1.62-3.66,2.58-4.92,4.38
		c-1.51,2.15-2.71,4.26-3.72,6.36c-1.04,2.16-1.88,4.32-2.64,6.51c0.44-0.75,0.91-1.5,1.4-2.25c2.65-4,5.85-7.61,7.36-7.4
		c0.85,0.12,0.26,1.72,0.13,2.56c-0.18,1.23,0.65,2.19,1.75,0.27C143.44,375.28,144.62,372.24,146.42,369.57L146.42,369.57z"/>
	<radialGradient id="SVGID_10_" cx="198.0593" cy="403.7375" r="150.1338" gradientUnits="userSpaceOnUse">
		<stop  offset="0" style="stop-color:#DFDE1E"/>
		<stop  offset="0.1419" style="stop-color:#D2D127"/>
		<stop  offset="0.3989" style="stop-color:#B3B434"/>
		<stop  offset="0.4721" style="stop-color:#A9AB36"/>
		<stop  offset="0.7551" style="stop-color:#7D7F32"/>
		<stop  offset="0.9071" style="stop-color:#6E6F2F"/>
	</radialGradient>
	<path class="st9" d="M162.39,435.9c0.71-1.26-0.07-3,0.54-4.31c0.33-0.71,1.24-1.19,2.02-1.21c1.22-0.03,2.34,1.46,3.51,1.08
		c1.42-0.46,1.71-2.7,3.1-3.24c1.76-0.68,3.92,0.59,5.66-0.13c0.83-0.34,0.89-1.67,0.81-2.56c-0.19-2.04-1.93-3.91-1.62-5.93
		c0.17-1.12,2.24-0.92,2.83-1.89c0.59-0.96-0.18-2.4,0.4-3.37c0.94-1.55,2.35-2.86,3.91-3.78c1.98-1.15,4.97-0.57,6.47-2.29
		c1.15-1.32-0.15-3.53,0.13-5.26c0.35-2.08,0.73-4.23,1.75-6.07c0.38-0.69,1.69-0.31,2.16-0.94c1.32-1.77,1.36-4.41,2.97-5.93
		c0.25-0.23,0.53-0.42,0.84-0.57c-0.85,0.2-1.71,0.38-2.35,0.93c-0.94,0.8-0.52,3.57-2.36,3.71c-0.51,0.04-2.83-1.48-3.84,0.13
		c-0.74,1.19,0.63,3.71,0.4,4.52c-0.13,0.48-0.99,0.43-1.21,0.88c-0.3,0.6,0.23,3.52-2.36,4.58c-1.4,0.58-4.75-1.81-5.87,1.42
		c-0.52,1.5,1.33,4.75-0.94,5.6c-0.69,0.26-1.58,0.21-2.09,0.74c-0.48,0.51,0.01,1.59-0.54,2.02c-8.37,6.6-15.2,0.94-23.19,8.02
		c-3.58,3.17-3.34,6.04,0.3,5.63c1.6-0.18,3.05-0.6,3.74,0.84c0.46,0.96-0.17,2.25-0.81,3.1c-1.79,2.4-9.67,5.6-10.58,8.77
		c-0.78,2.71,4.44,1.61,4.25,2.97c-0.11,0.74-6.4,8.23-0.54,11.06c2.84,1.37,6.44-1.78,9.44-0.81c1.29,0.42-0.03,2.81,0.54,4.05
		c0.64,1.39,2.5,2.05,2.97,3.51c0.34,1.06-1.01,2.14-0.81,3.24c0.28,1.5,2.5,2.56,2.16,4.05c-0.83,3.63-8.01,10.84-5.19,14.47
		c1.96,2.52,8.9-3.21,13.18-6.88c8.27-7.08,2.22,5.09,8.19,0.77c2.63-1.9,4.44-4.73,6.74-7.01c3.22-3.2,3.81,1.58,8.9-0.54
		c1.66-0.69,2.99-2,4.52-2.97c4.81-3.04,4.77-0.28,3.12,1.47c-2.1,2.23,0.85,3.86,1.81,1.46c0.57-1.43,1.26-3.94,2.02-6.15
		c1.43-4.14,3.68-6.95,5.58-4.37c0.53,0.72,1.51,0.95,2.24-0.43c0.46-0.88,1.17-3.88,1.87-6.19c1.21-4.01,2.11-3.61,1.65-0.13
		c-0.15,1.17-0.36,2.53-0.23,3.59c0.28,2.31,1.74,2.59,2.78,0.3c0.97-2.16,2.01-6.06,2.77-8.41c0.48-1.51,1.97-3.53,3.66-4.38
		c1.45-0.73,1.58,0.16,1.54,0.83c-0.03,0.47,0.09,0.86,0.54,0.99c2.65,0.74,11.56-11.1,13-13.48c0.71-1.17,1.42-2.37,2.36-3.37
		c1.16-1.22,5.49-3.3,7.08-4.05c2.22-1.04,4.62-1.68,6.74-2.9c1.4-0.8,2.65-1.89,3.71-3.1c0.99-1.12,1.52-2.57,2.36-3.81
		c0.96-1.42,2.54-3.2,3.22-1.92c-0.05-0.19-0.12-0.38-0.22-0.56c-0.49-0.83-2.07-0.05-2.83,0.54c-2.27,1.74-3.68,4.44-5.93,6.2
		c-2.91,2.27-6.28,3.89-9.44,5.8c-1.83,1.1-3.89,1.86-5.53,3.24c-1.52,1.27-2.31,3.25-3.78,4.58c-3.05,2.78-6.11,5.67-9.71,7.69
		c-2.45,1.37-5.69,0.85-8.09,2.29c-1.22,0.73-0.68,3.3-2.02,3.78c-1.7,0.6-3.49-1.54-5.26-1.21c-1.07,0.2-1.57,1.57-2.02,2.56
		c-0.82,1.8-0.55,4.1-1.75,5.66c-0.91,1.18-2.94,0.9-4.05,1.89c-1.98,1.77-3.03,4.42-4.99,6.2c-1.6,1.45-3.43,2.85-5.53,3.37
		c-1.59,0.39-3.51,0.13-4.85-0.81c-1.14-0.79-0.99-2.62-1.75-3.78c-1.05-1.6-1.88-3.69-3.64-4.45c-1.09-0.47-2.3,0.76-3.24,1.48
		c-1.48,1.15-2.1,3.55-3.91,4.05c-2.07,0.57-4.22-1.58-6.34-1.21c-1.35,0.23-1.6,2.78-2.97,2.83c-1.48,0.06-3.03-1.21-3.64-2.56
		c-0.56-1.25,0.81-2.69,0.67-4.05c-0.14-1.34-1.77-2.46-1.48-3.78c0.63-2.87,2.96-5.09,4.05-7.82c0.42-1.05,1.16-2.53,0.4-3.37
		c-0.6-0.68-1.67,0.79-2.56,0.94c-2,0.34-4.2,1.33-6.07,0.54c-1.51-0.63-2.7-2.55-2.56-4.18C159.39,436.81,161.77,437,162.39,435.9
		L162.39,435.9z M166.28,410.14c-1.16-0.92-3.26-1.21-4.58-0.53c-0.47,0.24-0.71,1.07-1.14,1.39c-0.84,0.62-3.43,1.15-5.28,2.55
		c-0.75,0.57-1.57,1.16-1.98,2.05c-0.52,1.12,0,1.31,0.42,1.28c2.67-0.19,5.19-1.41,7.83-1.87c1.2-0.21,3.17-0.38,4.83-0.41
		C169.11,414.56,168.63,412.01,166.28,410.14L166.28,410.14z"/>
	<radialGradient id="SVGID_11_" cx="234.5755" cy="434.8554" r="67.7143" gradientUnits="userSpaceOnUse">
		<stop  offset="0" style="stop-color:#FFFFFF"/>
		<stop  offset="1" style="stop-color:#079A48"/>
	</radialGradient>
	<path class="st10" d="M249.36,468.94c-0.62,0.85-0.06,2.71-1.08,2.97c-1.44,0.36-2.7-2.14-4.11-1.69
		c-1.83,0.59-2.96,2.57-3.91,4.25c-0.4,0.71,0.66,1.81,0.13,2.43c-0.53,0.62-1.67-0.04-2.43,0.27c-0.83,0.34-1.27,1.46-2.16,1.62
		c-0.72,0.13-1.29-0.94-2.02-0.88c-0.69,0.06-1.04,0.97-1.69,1.21c-1.43,0.55-3.05,0.52-4.45,1.15c-0.68,0.3-0.92,1.27-1.62,1.55
		c-0.65,0.26-1.45-0.35-2.09-0.07c-0.9,0.4-1.24,2.07-2.22,1.96c-2.3-0.27-3.96-3.01-6.27-2.97c-1.63,0.03-2.11,2.85-3.71,3.17
		c-0.93,0.19-1.09-1.83-2.02-2.02c-1.08-0.22-2.1,0.67-3.17,0.94c-1.55,0.39-3.9-0.34-3.98-1.69c-0.07-1.14,0.55-2.77,1.72-4.38
		c-0.23,0.22-0.45,0.45-0.66,0.69c-1.12,1.3-4.44,8.22-1.35,8.12c1-0.03,2.54-1.64,3.84-0.94c0.55,0.3,0.54,1.34,1.15,1.48
		c1.05,0.24,1.91-1.73,3.03-0.07c1.11,1.65,0.7,3.28,3.98,3.91c3.48,0.67,3.65-1.96,5.12-2.83c0.45-0.26,1.06,0.29,1.55,0.13
		c0.97-0.31,2.33-3.73,5.39-3.1c0.82,0.17,1.36,1.52,2.16,1.28c0.78-0.23,0.81-2.28,2.28-3.18c1.36-0.84,2.33,0.42,3.19,0.21
		c0.56-0.13,0.68-0.64,1.25-0.78c0.62-0.15,0.88,0.11,1.52,0.1c1.22-0.02,2.36-0.98,3.57-0.81c1.25,0.18,2.78,4.72,6.4,1.96
		c2.05-1.56,0.95-5.09,1.89-7.48c0.66-1.69,2.54-1.51,2.56-0.2c0.01,0.78-0.25,1.55-0.47,2.32c-0.25,0.87-0.67,2.07,0.77,1.97
		c0.47-0.03,0.96-0.28,1.18-0.78c0.51-1.17,0.49-2.53,0.77-3.78c0.23-1.02,0.65-1.98,1.91-1.87c0.34,0.03,0.62,0.2,0.69,0.59
		c0.1,0.54-0.18,1.08-0.27,1.62c-0.06,0.33,0.27,0.68,0.67,0.4c0.41-0.28,0.72-0.68,1.01-1.08c1.73-2.36,1.53-3.03,3.65-3.17
		c1.21-0.08,3.49-0.68,3.97-1.96c0.36-0.96-0.94-2.37-1.08-3.3c-0.14-0.97,0.65-0.74,1.13-0.57c0.35,0.12,0.75,0.21,0.96-0.01
		c0.81-0.85,1.15-3.12,2.26-3.51c0.84-0.29,0.54,1.29,1.68,0.73c1.48-0.72,1.24-1.65,2.06-2.48c1.08-1.09,2.46-1.03,3.79-0.8
		c-1.23-0.93-3.03-1-4.58-0.9c-1.04,0.07-1.75,1.21-2.76,1.48c-1.4,0.37-3.09-0.36-4.31,0.4c-0.84,0.52-0.33,2.01-0.88,2.83
		c-0.28,0.43-1.06,0.24-1.42,0.61c-0.39,0.4-0.63,0.99-0.67,1.55c-0.09,1.21,1.11,2.76,0.27,3.64c-0.74,0.78-2.29,0.02-3.17-0.61
		c-0.8-0.57-0.53-2.09-1.35-2.63c-1.07-0.71-2.58-1.21-3.78-0.74C251.55,465.88,250.42,467.51,249.36,468.94L249.36,468.94z"/>
	<radialGradient id="SVGID_12_" cx="357.1615" cy="380.8283" r="139.4624" gradientUnits="userSpaceOnUse">
		<stop  offset="0" style="stop-color:#F0AC55"/>
		<stop  offset="1" style="stop-color:#B97229"/>
	</radialGradient>
	<path class="st11" d="M397.23,303.68c-2.12-1.15-3.92-2.85-5.73-4.45c-1.77-1.57-3.09-3.65-4.99-5.06
		c-1.02-0.75-2.31-1.15-3.57-1.28c-0.43-0.04-0.91,0.39-1.01,0.81c-0.12,0.48,0.13,1.05,0.47,1.42c2.12,2.24,4.5,4.23,6.81,6.27
		c1.78,1.57,3.91,2.79,5.46,4.58c0.8,0.92,0.8,2.32,1.42,3.37c0.34,0.59,0.84,1.11,1.42,1.48c1.54,1.01,3.4,1.51,4.85,2.63
		c0.76,0.58,1.35,1.44,1.62,2.36c0.09,0.32-0.45,0.83-0.74,0.67c-1.34-0.7-2.21-2.12-3.51-2.9c-0.51-0.3-1.38-0.73-1.75-0.27
		c-0.44,0.54,0.03,1.43,0.27,2.09c0.22,0.59,0.91,0.94,1.08,1.55c0.11,0.38-0.51,0.79-0.34,1.15c1.4,2.87,3.22,5.52,4.92,8.23
		c0.68,1.08,1.72,1.93,2.22,3.1c0.19,0.44,0.09,1.1-0.27,1.42c-0.43,0.37-1.24,0.62-1.69,0.27c-1.16-0.9-1.51-2.55-2.56-3.57
		c-0.74-0.72-1.69-1.28-2.7-1.55c-0.76-0.2-1.8-0.36-2.36,0.2c-0.82,0.82-1.18,2.14-1.15,3.3c0.02,0.78,1.12,1.19,1.28,1.96
		c0.16,0.76-0.46,1.52-0.4,2.29c0.1,1.44,0.77,2.81,0.88,4.25c0.08,1.13-0.27,2.24-0.34,3.37c-0.16,2.78-0.37,5.57-0.34,8.36
		c0.01,1.2,0.66,2.39,0.47,3.57c-0.21,1.35-0.94,2.75-1.01,4.11c-0.12,2.34,0.26,4.17,0.17,6.51c-0.05,1.14-0.56,2.09-0.61,3.24
		c-0.05,1.45,0.55,2.7,0.64,4.15c0.09,1.36-0.55,2.68-0.67,4.05c-0.06,0.67,0.07,1.35,0.13,2.02c0.16,1.58,0.74,3.15,0.54,4.72
		c-0.18,1.4-1.09,2.6-1.62,3.91c-0.51,1.25-1.15,2.47-1.48,3.78c-0.26,1.01,0.06,2.12-0.27,3.1c-0.28,0.83-0.96,1.76-0.94,2.63
		c0.04,2.27,1.13,3.87,1.08,6.14c-0.04,2.03-1.06,3.94-1.89,5.8c-1.53,3.41-4.18,5.78-5.66,8.63c-0.36,0.69-0.6,1.54-0.4,2.29
		c0.09,0.36,0.71,0.29,1.08,0.27c2.2-0.11,5.63-1.71,6.61-3.24c1.34-2.1,0.55-5.52,1.21-7.28c0.22-0.59,1.29-0.25,1.75-0.67
		c0.97-0.88,1.81-1.94,2.43-3.1c0.44-0.82,0.8-1.78,0.67-2.7c-0.25-1.83-1.54-3.42-1.75-5.26c-0.25-2.15,0.05-4.34,0.4-6.47
		c0.19-1.14,0.45-2.37,1.21-3.24c0.42-0.48,1.32,0,1.89-0.27c0.6-0.29,1.22-0.73,1.48-1.35c0.45-1.05,0.2-2.29,0.54-3.37
		c0.16-0.52,0.4-1.36,0.94-1.35c0.65,0.02,1.22,0.78,1.35,1.42c0.22,1.11-0.63,2.26-0.4,3.37c0.14,0.69,0.99,0.99,1.42,1.55
		c0.21,0.28,0.44,0.59,0.47,0.94c0.08,0.83-0.29,1.68-0.13,2.49c0.1,0.53,0.37,1.18,0.88,1.35c0.6,0.19,1.54,0.09,1.82-0.47
		c0.79-1.62,0.47-3.6,1.01-5.33c0.26-0.83,1.15-1.38,1.35-2.22c0.31-1.34,0.49-2.79,0.13-4.11c-0.4-1.5-1.74-2.6-2.29-4.05
		c-1.21-3.18,1.29-3.36,1.82-6.34c0.2-1.13,0.12-2.36-0.27-3.44c-0.6-1.64-2.19-2.83-2.63-4.52c-0.34-1.31,0.25-2.7,0.4-4.05
		c0.11-0.95,0.39-1.88,0.4-2.83c0.03-1.26-0.36-2.52-0.27-3.78c0.07-0.93,0.6-1.78,0.74-2.7c0.13-0.84-0.11-1.73,0.07-2.56
		c0.04-0.21,0.42-0.52,0.54-0.34c0.51,0.78,0.86,1.7,0.94,2.63c0.14,1.48-0.17,2.97-0.27,4.45c-0.11,1.62-0.39,3.23-0.34,4.85
		c0.12,3.85,0.21,3.13,2.7,5.19c0.53,0.44,3.06,3,3.84,1.28c0.92-2.01,0.72-4.36,1.08-6.54c0.14-0.83,0.59-1.67,0.4-2.49
		c-0.26-1.15-1.34-1.98-1.69-3.1c-0.17-0.54,0.33-1.14,0.2-1.69c-0.24-1.01-1.06-1.82-1.28-2.83c-0.24-1.12,0.04-2.3-0.07-3.44
		c-0.06-0.62-0.47-1.2-0.4-1.82c0.03-0.29,0.43-0.7,0.67-0.54c0.56,0.36,0.87,1.05,1.08,1.69c0.47,1.42,0.47,2.97,0.94,4.38
		c0.21,0.61,0.92,0.99,1.08,1.62c0.35,1.42-0.1,3,0.4,4.38c0.35,0.94,1.51,1.37,2.02,2.23c0.38,0.64,0.23,1.51,0.61,2.16
		c0.48,0.81,1.48,1.24,1.89,2.09c0.48,1.02,0.19,2.29,0.67,3.3c0.78,1.62,2.79-0.24,2.56-1.28c-0.32-1.47-1.43-1.89-2.02-3.27
		c-0.22-0.52-0.07-1.59-0.27-2.12c-0.4-1.04-1.48-1.7-1.96-2.7c-0.26-0.55-0.33-1.21-0.08-1.77c0.23-0.52,0.87-0.6,1.06-1.13
		c0.25-0.68,0.23-0.95,0.4-1.65c0.09-0.36,0.32-0.65,0.51-0.98c0.4-0.69,0.17-1.72,0.74-2.29c0.3-0.3,1-0.02,1.21,0.34
		c0.43,0.7-0.02,1.77,0.47,2.43c0.65,0.87,1.92,1.06,2.7,1.82c0.91,0.89,1.41,2.15,2.29,3.07c1.13,1.18,2.11,0.5,2.83,3.71
		c0.23,1.01-0.45,2.14-0.07,3.1c0.44,1.11,1.71,1.69,2.36,2.7c0.23,0.36-0.02,0.91,0.2,1.28c0.72,1.19,1.91,2.07,2.56,3.3
		c0.47,0.88,0.61,1.91,0.74,2.9c0.08,0.58-0.38,1.22-0.13,1.75c0.65,1.4,2.08,2.36,2.7,3.78c0.43,0.97-0.05,2.18,0.34,3.17
		c0.21,0.55,0.76,1.13,1.35,1.15c0.54,0.01,1.14-0.54,1.21-1.08c0.22-1.47,0.02-3.02-0.4-4.45c-0.36-1.2-1.44-2.07-1.89-3.24
		c-1.26-3.26-1.92-6.74-3.24-9.98c-0.99-2.44-2.44-4.67-3.64-7.01c-0.69-1.34-1.25-2.75-2.02-4.05c-0.49-0.83-1.35-1.42-1.75-2.29
		c-0.49-1.08-1.17-2.29-0.88-3.44c0.16-0.63,1.07,0.8,1.42,1.35c0.83,1.32,1.19,2.91,2.09,4.18c0.76,1.08,2.11,1.66,2.83,2.76
		c0.61,0.93,0.53,2.2,1.08,3.17c0.77,1.37,1.96,2.46,2.83,3.78c1.16,1.75,2.21,3.57,3.24,5.39c1,1.78,1.9,3.61,2.85,5.41
		c-1.97-6.28-4.13-14.98-7.03-20.71c-0.35-0.69-9.91-18.27-10.25-18.61c-0.31-0.31-3.78-2.68-5.39-4.32
		c-1.42-1.44-2.31-3.33-3.64-4.85c-1.11-1.27-2.58-2.2-3.64-3.51c-0.93-1.14-1.91-3.67-2.29-3.78c-1.92-0.51-9.66-4.28-11.19-5.53
		c-1.44-1.17-1.97-3.27-3.51-4.31C400.37,303.88,398.55,304.4,397.23,303.68L397.23,303.68z M384.77,424.44
		c-3.47-2.63-3.33,4.68-4.86,6.02c-1.4,1.23-2.33,4-2.54,5.72c-0.46,3.83-0.38,4.35-1.94,7.98c-0.38,0.87-1.02,2.76,0.43,2.76
		c3.77,0,4.04-12.93,5.96-12.81c1.56,0.1,4.45-2.02,3.43-4.2c-0.61-1.3-1.88-2.23-0.31-3.47
		C385.69,425.85,384.87,424.51,384.77,424.44L384.77,424.44z"/>
	<radialGradient id="SVGID_13_" cx="311.1962" cy="430.5708" r="145.8816" gradientUnits="userSpaceOnUse">
		<stop  offset="0" style="stop-color:#84C55B"/>
		<stop  offset="1" style="stop-color:#1A9D48"/>
	</radialGradient>
	<path class="st12" d="M386.84,503.06c-1.71-0.16-1.48-1.51-1.48-2.98c0-1.35,6.72-7.88,7.75-10.3c0.38-0.89,2.7-4.56,4.07-3.49
		c0.47,0.37,0.93,2.09,2.52-0.4c0.92-1.44,0.08-4.07,3.99-8.01c0.83-0.83,3.45-1.01,2.71,2.5c-0.65,3.11,3.86-0.08,4.1,5.59
		c0.02,0.45-0.77,0.73-0.8,1.21c-0.1,1.33-4.05-0.22-4.05,2.34c0,2.04,2.88,2.84,0.13,4.99c-1.41,1.1,4.43,3.51,4.79,5.69
		c0.01,0.06,0.38,0.88,0.4,1.01c0.09,0.52-0.07,1.15,0.27,1.55c0.23,0.27,0.92,4.46,3.15-0.35c0.53-1.13,2.8-3.33,3.82-1.73
		c0.53,0.82,1.41,0.22,1.26,3.25c-0.08,1.68,3.14,4.34,1.43,6.17c-0.81,0.87-3.18,2.84-3.44,3.32c-0.34,0.62-0.6,3.46-2.51,3.05
		c-0.07-0.02-0.84-2.05-1.47-0.16c-0.03,0.08,0.01,0.26-0.01,0.35c-0.14,0.74-0.43,1.47-0.47,2.22c-0.12,2.19-1.55,5.26-4,5.26
		c-2.2,0-1.8,1.3-3.21,3.65c-0.9,1.51-3.56,8.36-6.08,7.69c-0.55-0.15,0.76-2.24-0.78-2.24c-1.38,0-2.28,1.86-2.9,2.92
		c-0.76,1.29,3.16-0.68,2.03,2.5c-0.16,0.45-0.98,1.79-1.37,2.2c-0.45,0.48-0.93,0.93-1.48,1.28c-1.38,0.89-6.05,2.37-6.8,3.34
		c-0.42,0.54-0.61-0.48-1.51,1.92c-0.54,1.43-7.72,0.55-5.9,2.57c0.71,0.79,3.5-1.22,3.29,1.27c-0.14,1.73-7.69-1.63-6.83,2.09
		c0.57,2.48-3.57,0.22-5.07,3.34c-0.36,0.74-2.94,2.14-4.48,1.78c-0.65-0.15-5.47,2.35-6.2,3.24c-1.87,2.29-3.44,0.09-0.93-1.96
		c3.78-3.08,0.3-1.98,2.91-4.29c0.28-0.25,7.68-4.86,3.55-4.47c-0.32,0.03-3.21,1.27-3.55,1.51c-0.44,0.31-3.06,1-3.06,0.25
		c0-3.07,2.29-0.73,2.29-4c0-1.14,7.17-4.54,1.47-3.56c-1.93,0.33-1.31-0.76-3.46,1.76c-0.38,0.45-3.79,1.17-5.05,2.01
		c-0.49,0.32-1.07,0.66-1.79,1.09c-1.49,0.9-2.96,1.88-4.59,2.49c-2.35,0.89-6.34,4.61-9.78,5.25c-1.22,0.23-3.07,1.71-5.62,2.03
		c-5.3,0.66-2.32-1.76-5.16-1.55c-1.03,0.08,1.13,1.17-0.81,2.52c-1.86,1.3-4.78,1.82-7.01,2.35c-2.08,0.5-6.93,1.08-9,0.61
		c-0.86-0.2-3.21,0.08-3.81,0.66c-3.89,3.71-5.68,4.77-11.35,3.08c-1.59-0.47-9.37,1.11-6.79-2.58c0.89-1.27,15.01-1.71,17.69-3.38
		c1.53-0.95,6.92,0.74,6.92-2.78c0-4.71-0.48-2.69,3.14-5.06c3.72-2.44,0.83-3.68,4.19-4.73c3.88-1.21,2.87-0.47,6.06-3.41
		c1.65-1.51,2.28-2.32,4.14-3.85c1.91-1.58,2.81-0.4,5.52-1.08c0.44-0.11,0.77-0.48,1.15-0.74c1.61-1.13,3.64-5.47,2.51-7.23
		c-0.62-0.96,1.56-2.25-0.08-3.76c-1.99-1.82,2.85-5.83,3.66-6.99c1.74-2.5,6.19-5.59,5.24-8.52c-0.31-0.95-3.72,3.91-4.16,2.72
		c-0.77-2.09-5.53,0.46-1.11-7.75c2.48-4.61,2.32-1.68,4.04-2.78c0.26-0.16,0.18-1.3,0.83-1.69c0.88-0.54,1.29-1.61,1.82-2.49
		c0.23-0.39,1.84-4.44,2.32-4.45c1.14-0.03,1.36,2.4,0.38,3.71c-1.35,1.81-3.17,6.03-2.51,8.21c0.33,1.09-0.76,2.16,0.55,2.93
		c0.22,0.12,1.27,2.06,2.28,0.37c0.55-0.92-0.76-2.81,2.6-2.81c1.59,0,2.69-3.54,4.98-4.98c2.99-1.88,0.75,3.9,2.51,1.5
		c0.14-0.19,1.99-1.48,2.33,0.17c0.13,0.67,0.73,0.73,0.68,2.35c-0.03,0.97,2.38-0.24,3.1-1.52c0.6-1.07,5.33-5.63,5.33-1.46
		c0,1.81-1.39,2.27,0.18,4.49c0.12,0.18-0.76,1.91,1.78,0.64c0.02-0.01,3.03-3.64,3.16-0.59c0.02,0.36-0.59,1.63,1.35,0.59
		c2.03-1.09,0.81-3.01,3.43-4.92c1.63-1.18,1.49-1.17,2.79-2.54c3.28-3.44-0.59-2.6-1.37-0.08
		C387.48,503.29,387.35,503.11,386.84,503.06L386.84,503.06z M361.42,511.92c-1.21-1.52-2.43,1.73-2.43,3.21
		c0,1.96,0.26,3.57-0.91,5.15c-1.85,2.49,2.23,7.64-1.17,8.85c-0.96,0.34-1.5,4.16-3.08,5.38c-0.57,0.44-3.16,3.9-4.35,4.7
		c-1.07,0.71,0.96,1.14-0.5,2.25c-0.78,0.59-7.77,6.14-3.38,5.93c2.82-0.13,5.2-2.52,7.75-3.95c1.03-0.58,1.37-1.57,3.79-2.54
		c0.72-0.29,3.26-2.29,3.34,0.22c0.03,0.92,3.02,2.35,3.1-1.21c0.05-1.98,3.84,0.27,4.67-2.99c0.28-1.1,5.32-0.41,3.86-3.45
		c-0.77-1.6,3.36-0.94,0.49-2.53c-1.4-0.78-2.61,1.04-3.8-2.28c-0.44-1.22-1.92-1.36-2.33,0.55c-0.5,2.29,0.17,4.74-3.43,5.24
		c-1.93,0.27-1.11-4.27-0.07-5.48c0.89-1.03-2.48-3.77-0.6-6.72c0.95-1.48-1.7-2.2-0.38-6.03
		C362.84,513.74,361.6,512.14,361.42,511.92L361.42,511.92z M384.46,522.78c-0.26,2.84,0.5,5.49,3.52,7.11
		c1.71,0.92,5.74-0.56,5.45-1.72c-0.12-0.47-1.74,0.3-3.58-0.16c-1.4-0.35-2.16-1.73-2-3.78c0.27-3.64,1.26-5.2,1.9-5.97
		c0.75-0.9,2.99-2.31,2.29-0.46c-0.33,0.88-5.87,13.9,7.93,3.65c4.15-3.09,8.26-7.63,6.36-12.65
		C403.5,501.35,385.7,509.12,384.46,522.78L384.46,522.78z M395.63,510.38c-2.48,2.09-4.66,5.14-2.08,4.99
		c0.46-0.03,6.16-5.95,7-1.9c0.36,1.74-2.53,4.65-4.33,5.36c-0.35,0.14-3.32,1.54-1.94,2.12c2.69,1.14,10.24-5.51,10.77-9.83
		c0.26-2.08-1.54-2.86-3.33-2.99C399.4,507.95,397.4,508.89,395.63,510.38L395.63,510.38z M358.58,484.01
		c-1.32-1.89-3.33-0.28-3.11-3.94c0.13-2.21,0.92-0.94,0.54-5.78c-0.49-6.3,6.71-1.2,9.01-10.34c0.42-1.65,1.34,0.53,2.19-4.99
		c0.27-1.75,4.89-5.17,5.53-8.28c0.22-1.08,4.09-3.08,0.09,4.87c-0.46,0.92-2.65,6.34-1.88,7.33c0.61,0.78,0.59,3.53-1.41,4.55
		c-2.73,1.39-3.94,6.08-4.99,8.9c-1.71,4.61-0.97,7.21-5.16,11.09c-0.22,0.2-4.86,9.26-4.19,2.62
		C355.4,487.98,360.04,486.09,358.58,484.01L358.58,484.01z"/>
	<radialGradient id="SVGID_14_" cx="200.8434" cy="284.2596" r="164.5588" gradientUnits="userSpaceOnUse">
		<stop  offset="0" style="stop-color:#FFFFFF"/>
		<stop  offset="0.1882" style="stop-color:#F6F9FD"/>
		<stop  offset="0.4356" style="stop-color:#E5EEF9"/>
		<stop  offset="0.7161" style="stop-color:#C8DFF4"/>
		<stop  offset="1" style="stop-color:#A4CDED"/>
	</radialGradient>
	<path class="st13" d="M271.79,262.26c1.48-0.37,17.75-3.97,18.05-3.83c3.88,1.84,6.44,1.05,8.35,0.35
		c4.26,1.5,13.21,1.67,15.39,2.09c2.1,0.4,13.42,2.9,16.85,4.45c-1.56-0.22-7.23-1.76-9.14,0.22c-1.71,1.77-3.83,1.06-4.05,1.15
		c-2.33,0.92-0.39,2.37,1.43,2.52c1.59,0.13,3.55,0.01,4.1,0.39c6.43,4.46,13.48,2.64,14.71,3.91c2.56,2.66,8.92,2.24,9.19,3.29
		c0.99,3.81-4.62,0.36-5.65,2.34c-0.96,1.84-2.69,0.66-5.38,0c-6.71-1.64-5.18,2.49-1.08,2.67c2.93,0.13,6.14,3.56,4.4,3.49
		c-1.82-0.07-1.24,1.97-3.24,1.89c-11.52-0.49,2.25,3.22,3,4.49c3.28,5.53-5.92,0.36-6.08,0.35c-5.06-0.36-1.28,3.51-1.17,3.6
		c0.94,0.71,8.22,2.6,8.43,3.56c0.97,4.41-6.68-0.32-7.69-0.27c-4.89,0.23-1.47,3.89,0.38,4.71c1.95,0.86,6,4.83,6.03,4.84
		c2.26,0.75,1.54-0.72,1.54-1.59c0-4.53,10.65,1,11.61,1.93c6.24,6.06-9.69-1.49-7.81,2.64c2.8,6.15-5.53,5.94-5.97,2.99
		c-0.55-3.7-5.19-6.35-8.71-6.35c-3.02,0-3.37-1.16-3.52-2.31c-0.53-3.95-5.96-2.75-5.56,0.04c0.17,1.15,0.92,2.51,1.6,3.56
		c1.03,1.58,1.11,2.48,0.47,3.84c-1.01,2.15-3.23-1.55-4.27-2.58c-2.95-2.93-2.65-5.09-2.45-6.69c0.35-2.79-0.69-4.36-4.93-3.67
		c-1.46,0.24-2.34-1.04-2.83-1.48c-2.04-1.84-5.09-3.27-5.95,0.02c-0.34,1.29,0.78,10.16-1.7,10.67c-4.9,1-1.75-5.65-2.52-6.51
		c-1.8-2-0.15-5.67-1.16-6.7c-2.82-2.87-2.89,5.07-5.31,5.74c-5.02,1.4-1.03-3.08-1.02-3.18c0.43-6.61-6.21-0.98-6.25-0.98
		c-3.75,0.15-5.88,7.24-8.87,4.63c-2.72-2.37,2.8-3.27,1.79-5.36c-1.34-2.76-6,1.54-8.45,0.56c-0.9-0.36,1.48-6.08-6.19-0.39
		c-4.56,3.39-4.47-0.88-3.93-1.34c1.81-1.54-0.97-1.38-3.17-0.6c-4.52,1.6-9.15,6.42-12.05,8.8c-1.91,1.57-3.54,1.55-2.94-0.07
		c0.56-1.53,1.84-3.13,0.7-3.8c-2.12-1.26-7.78,2-9.36,0.31c-1.62-1.73-0.63-2.79,1.02-3.45c1.03-0.41,8.25-2.21,9.79-2.51
		c5.57-1.09,13.89-1.81,14.05-4.06c0.3-4.04-15.59,2.74-18.1,2.03c-3.4-0.96-8.13,4.5-11,1.98c-3-2.64,2.39-4.37,2.62-4.68
		c3.12-4.38,17.52-2.38,20.64-6.41c3.38-4.37-3.59-2.3-5.06-3.32c-4.5-3.15,9.07-3.26,9.5-3.64c4.65-4.07-3.62-1.6-4.76-1.61
		c-3.1-0.03-18.26,6.2-18.26,2.7c0-3.56,9.17-2.63,13.38-4.98c2.46-1.37,7.26-0.81,10.21-0.81c12.22,0,4.16-2.37,3.86-2.83
		c-2.39-3.67,2.89-1.82,3.96-2.82c1.43-1.35,9.89-0.63,12-0.28c0.96,0.16,3.41,0.41,3.25-0.82c-0.07-0.49-1.41-0.02-0.56-1.02
		C278.81,263.11,275.36,261.72,271.79,262.26L271.79,262.26z M225.12,297.09c-6.45-2.85-6.4,4.49-10.51,4.21
		c-3.03-0.21-5.68,3.66-7.49,5.83c-2.41,2.89-1.35,3.19,1.01,2.05c3.51-1.69,6.22-5.17,10.77-4.38c3.83,0.66-0.01-4.19,5.54-3.93
		C227.35,301.01,228.61,298.63,225.12,297.09L225.12,297.09z M202.39,311.07c-2.21,1.53-0.95-0.65-2.3,1.84
		c-0.73,1.34-2.54-0.3-3.03,2.1c-0.16,0.78-3.3,2.53-3.98,3.56c-0.47,0.72-6.23,5.79-1.39,3.98c0.8-0.3,2.05-3.01,4.85-4.11
		c0.89-0.35,3.95-2.67,3.95-3.58c0-2.76,0.82-0.7,2.68-2.43C203.77,311.89,202.62,310.91,202.39,311.07L202.39,311.07z"/>
	<radialGradient id="SVGID_15_" cx="392.7475" cy="342.1411" r="84.868" gradientUnits="userSpaceOnUse">
		<stop  offset="1.100000e-07" style="stop-color:#FFFFFF"/>
		<stop  offset="1" style="stop-color:#848433"/>
	</radialGradient>
	<path class="st14" d="M441.53,349.63c-0.35-0.69-9.91-18.27-10.25-18.61c-0.31-0.31-3.78-2.68-5.39-4.32
		c-1.42-1.44-2.31-3.33-3.64-4.85c-1.11-1.27-2.58-2.2-3.64-3.51c-0.93-1.14-1.91-3.67-2.29-3.78c-0.52-0.14-1.48-0.52-2.62-1.03
		c-3.05-1.35-7.45-3.59-8.57-4.5c-1.44-1.17-1.97-3.27-3.51-4.31c-1.24-0.84-3.06-0.33-4.38-1.05c-2.12-1.15-3.92-2.85-5.73-4.45
		c-1.77-1.57-3.09-3.65-4.99-5.06c-1.02-0.75-2.31-1.15-3.57-1.28c-0.43-0.04-0.91,0.39-1.01,0.81c-0.12,0.48,0.13,1.05,0.47,1.42
		c2.12,2.24,4.5,4.23,6.81,6.27c1.78,1.57,3.91,2.79,5.46,4.58c0.8,0.92,0.8,2.32,1.42,3.37c0.34,0.59,0.84,1.11,1.42,1.48
		c1.54,1.01,3.4,1.51,4.85,2.63c0.76,0.58,1.35,1.44,1.62,2.36c0.09,0.32-0.45,0.83-0.74,0.67c-1.34-0.7-2.21-2.12-3.51-2.9
		c-0.51-0.3-1.38-0.73-1.75-0.27c-0.44,0.54,0.03,1.43,0.27,2.09c0.22,0.59,0.91,0.94,1.08,1.55c0.11,0.38-0.51,0.79-0.34,1.15
		c1.4,2.87,3.22,5.52,4.92,8.23c0.68,1.08,1.72,1.93,2.22,3.1c0.19,0.44,0.09,1.1-0.27,1.42c-0.43,0.37-1.24,0.62-1.69,0.27
		c-1.16-0.9-1.51-2.55-2.56-3.57c-0.74-0.72-1.69-1.28-2.7-1.55c-0.55-0.15-1.24-0.27-1.8-0.11c1.35,2.75,3.36,5.16,5.37,7.47
		c2.89,3.3,7.21,5.39,9.44,9.17c1.72,2.91,3.45,6.46,3.64,9.84c0.09,1.57-0.34,3.2-1.08,4.58c-0.75,1.41-2.82,2.12-3.38,3.53
		c0.39,0.34,0.94,0.71,1.76,1.39c0.53,0.44,3.06,3,3.84,1.28c0.92-2.01,0.72-4.36,1.08-6.54c0.14-0.83,0.59-1.67,0.4-2.49
		c-0.26-1.15-1.34-1.98-1.69-3.1c-0.17-0.54,0.33-1.14,0.2-1.69c-0.24-1.01-1.06-1.82-1.28-2.83c-0.24-1.12,0.04-2.3-0.07-3.44
		c-0.06-0.62-0.47-1.2-0.4-1.82c0.03-0.29,0.43-0.7,0.67-0.54c0.56,0.36,0.87,1.05,1.08,1.69c0.47,1.42,0.47,2.97,0.94,4.38
		c0.21,0.61,0.92,0.99,1.08,1.62c0.35,1.42-0.1,3,0.4,4.38c0.35,0.94,1.51,1.37,2.02,2.23c0.38,0.64,0.23,1.51,0.61,2.16
		c0.48,0.81,1.48,1.24,1.89,2.09c0.48,1.02,0.19,2.29,0.67,3.3c0.78,1.62,2.79-0.24,2.56-1.28c-0.32-1.47-1.43-1.89-2.02-3.27
		c-0.22-0.52-0.07-1.59-0.27-2.12c-0.4-1.04-1.48-1.7-1.96-2.7c-0.26-0.55-0.33-1.21-0.08-1.77c0.23-0.52,0.87-0.6,1.06-1.13
		c0.25-0.68,0.23-0.95,0.4-1.65c0.09-0.36,0.32-0.65,0.51-0.98c0.4-0.69,0.17-1.72,0.74-2.29c0.3-0.3,1-0.02,1.21,0.34
		c0.43,0.7-0.02,1.77,0.47,2.43c0.65,0.87,1.92,1.06,2.7,1.82c0.91,0.89,1.41,2.15,2.29,3.07c1.13,1.18,2.11,0.5,2.83,3.71
		c0.23,1.01-0.45,2.14-0.07,3.1c0.44,1.11,1.71,1.69,2.36,2.7c0.23,0.36-0.02,0.91,0.2,1.28c0.72,1.19,1.91,2.07,2.56,3.3
		c0.47,0.88,0.61,1.91,0.74,2.9c0.08,0.58-0.38,1.22-0.13,1.75c0.65,1.4,2.08,2.36,2.7,3.78c0.43,0.97-0.05,2.18,0.34,3.17
		c0.21,0.55,0.76,1.13,1.35,1.15c0.54,0.01,1.14-0.54,1.21-1.08c0.22-1.47,0.02-3.02-0.4-4.45c-0.36-1.2-1.44-2.07-1.89-3.24
		c-1.26-3.26-1.92-6.74-3.24-9.98c-0.99-2.44-2.44-4.67-3.64-7.01c-0.69-1.34-1.25-2.75-2.02-4.05c-0.49-0.83-1.35-1.42-1.75-2.29
		c-0.49-1.08-1.17-2.29-0.88-3.44c0.16-0.63,1.07,0.8,1.42,1.35c0.83,1.32,1.19,2.91,2.09,4.18c0.76,1.08,2.11,1.66,2.83,2.76
		c0.61,0.93,0.53,2.2,1.08,3.17c0.77,1.37,1.96,2.46,2.83,3.78c1.16,1.75,2.21,3.57,3.24,5.39c1,1.78,1.9,3.61,2.85,5.41
		C446.59,364.06,444.43,355.36,441.53,349.63L441.53,349.63z"/>
	<radialGradient id="SVGID_16_" cx="162.2589" cy="432.0063" r="144.0182" gradientUnits="userSpaceOnUse">
		<stop  offset="0" style="stop-color:#FFFFFF"/>
		<stop  offset="1" style="stop-color:#079A48"/>
	</radialGradient>
	<path class="st15" d="M178.93,512.62c-10.82,0.43-17.8,8.63-14.43-17.52c0.33-2.55,1.81-8.9-2.97-5.66
		c-3.32,2.25-7.39,9.06-13.48,7.28c-1.97-0.58-2.9-3.34-2.97-5.39c-0.12-3.86,1.41-7.6,2.43-11.33c1.51-5.54,3.82-10.86,5.12-16.45
		c1.25-5.36-2.18-6.06-4.85-3.24c-2.89,3.05-4.93,7-8.36,9.44c-3.83,2.72-5.93-5.23-5.39-8.36c0.61-3.53,2.7-6.67,4.58-9.71
		c0.89-1.44,1.12-2.65-0.84-1.96c-1.73,0.62-4.11,1.67-6.17,2.22c-0.87,0.24-1.92-0.21-1.35-1.62c2.12-5.22,4.78-10.53,5.12-16.18
		c0.14-2.26-3.11-3.5-3.78-5.66c-0.48-1.56,0.82-3.25,0.54-4.85c-0.2-1.16-1.89-1.79-1.89-2.97c0-3.21,1.39-6.27,1.89-9.44
		c0.35-2.23,0.84-4.49,0.67-6.74c-0.36-4.78-6.08-0.75-2.57-16.77c-0.97,2.98-1.89,6.04-3.09,9.28c-1.74,4.73-5.59,12.93-5.66,14.02
		c-0.08,1.14,2.05,6.58,2.16,9.98c0.08,2.57-1.9,6.68-1.62,7.55c3.04,9.41,4.38,19.32,5.66,29.13c0.35,2.69-1.11,7.19-0.81,8.09
		c0.52,1.55,5.68,11.68,7.82,17.8c0.93,2.66-0.1,5.94,1.35,8.36c6.03,10.07,7.16,19.61,10.79,29.4c0.42,1.13,6.46,4.46,9.44,7.01
		c8.87,7.6,9.77,11.44,15.64,17.8c4.17,4.51,8.65,8.8,13.62,12.41c3.33,2.42,7.57,3.33,11.06,5.53c2.48,1.56,4.2,4.2,6.74,5.66
		c4.75,2.75,9.88,4.82,14.97,6.88c2.11,0.85,4.39,1.22,6.59,1.83c-1.36-0.58-2.7-1.39-3.64-2.5c-0.39-0.46-0.11-1.27-0.47-1.75
		c-0.41-0.55-1.36-0.55-1.69-1.15c-0.28-0.52,0.41-1.23,0.13-1.75c-0.34-0.65-1.16-0.92-1.75-1.35c-0.55-0.4-1.4-0.53-1.69-1.15
		c-0.22-0.47,0.53-0.97,0.47-1.48c-0.07-0.64-0.32-1.34-0.81-1.75c-0.97-0.83-2.49-0.89-3.37-1.82c-0.47-0.49-0.6-1.43-0.27-2.02
		c0.43-0.79,1.9-0.71,2.22-1.55c0.27-0.7-0.3-1.54-0.81-2.09c-0.53-0.57-1.42-0.62-2.09-1.01c-0.64-0.38-1.82-0.54-1.82-1.28
		c0-0.61,1.22-0.34,1.82-0.2c1.36,0.3,2.52,1.35,3.91,1.48c0.86,0.08,1.6-0.65,2.43-0.88c0.86-0.24,1.76-0.75,2.63-0.54
		c1.05,0.25,1.72,1.35,2.7,1.82c0.41,0.2,0.9,0.08,1.35,0.14c1.78,0.22,3.54,0.75,5.33,0.67c0.81-0.04,1.85-0.29,2.22-1.01
		c0.43-0.82,0.27-2.01-0.27-2.76c-0.55-0.77-1.62-1.24-2.56-1.21c-1.15,0.03-2.06,1.05-3.17,1.35c-0.78,0.21-1.66,0.39-2.43,0.13
		c-1.45-0.49-2.53-1.79-3.98-2.29c-1.02-0.35-2.39,0.47-3.24-0.2c-2.77-2.22-4.45-5.57-7.01-8.02c-0.57-0.54-1.45-0.94-2.22-0.81
		c-1.64,0.28-2.98,1.54-4.58,1.96c-0.55,0.14-1.11-0.33-1.69-0.34c-0.99-0.01-2,0.49-2.97,0.27c-0.93-0.21-1.86-0.72-2.43-1.48
		c-0.47-0.64-0.16-1.6-0.4-2.36c-0.23-0.7-0.36-1.62-1.01-1.96c-1.89-0.98-4.23-0.8-6.14-1.75c-0.48-0.24-0.11-1.15-0.47-1.55
		c-0.92-1.02-2.28-1.57-3.24-2.56c-0.2-0.21-0.34-0.99-0.07-0.88c1.01,0.42,1.64,1.48,2.63,1.96c0.57,0.27,1.32-0.07,1.89,0.2
		c0.75,0.36,1.08,1.42,1.89,1.62c1.22,0.31,2.53-0.36,3.78-0.2c1.42,0.18,2.69,1.11,4.11,1.21c0.48,0.04,1.19-0.32,1.21-0.81
		c0.08-1.67-1.28-3.29-0.94-4.92c0.19-0.92,1.37-1.76,2.29-1.62c0.05,0.01,0.09,0.02,0.13,0.03c-1.82-3.02-3.03-6.59-5.58-9
		c-1.77-1.68-5.09-0.65-7.01-2.16C185.31,516.81,189.72,512.19,178.93,512.62L178.93,512.62z"/>
	<radialGradient id="SVGID_17_" cx="201.5163" cy="497.8489" r="91.0632" gradientUnits="userSpaceOnUse">
		<stop  offset="0" style="stop-color:#F0AC55"/>
		<stop  offset="1" style="stop-color:#B97229"/>
	</radialGradient>
	<path class="st16" d="M206.82,543.44c-1.64,0.28-2.98,1.54-4.58,1.96c-0.55,0.14-1.11-0.33-1.69-0.34c-0.99-0.01-2,0.49-2.97,0.27
		c-0.93-0.21-1.86-0.72-2.43-1.48c-0.47-0.64-0.16-1.6-0.4-2.36c-0.23-0.7-0.36-1.62-1.01-1.96c-1.89-0.98-4.23-0.8-6.14-1.75
		c-0.48-0.24-0.11-1.15-0.47-1.55c-0.92-1.02-2.28-1.57-3.24-2.56c-0.2-0.21-0.34-0.99-0.07-0.88c1.01,0.42,1.64,1.48,2.63,1.96
		c0.57,0.27,1.32-0.07,1.89,0.2c0.75,0.36,1.08,1.42,1.89,1.62c1.22,0.31,2.53-0.36,3.78-0.2c1.42,0.18,2.69,1.11,4.11,1.21
		c0.48,0.04,1.19-0.32,1.21-0.81c0.08-1.67-1.28-3.29-0.94-4.92c0.19-0.92,1.37-1.76,2.29-1.62c1.16,0.18,1.47,2.15,2.63,2.36
		c1.6,0.29,3.16-0.96,4.79-1.01c1.28-0.04,2.56,1.14,3.78,0.74c0.67-0.22-0.27-1.73,0.34-2.09c0.6-0.35,1.26,0.77,1.96,0.74
		c0.63-0.02,1.05-0.87,1.69-0.88c0.71-0.01,1.25,0.76,1.96,0.81c1.09,0.07,2.18-0.18,3.24-0.47c0.77-0.21,1.62-0.43,2.16-1.01
		c0.61-0.67,0.97-1.6,1.08-2.49c0.08-0.63-0.15-1.32-0.54-1.82c-0.77-0.99-2.21-1.4-2.83-2.49c-0.29-0.51,0.6-1.12,0.47-1.69
		c-0.25-1.15-1.34-2.01-1.55-3.17c-0.1-0.55,0.73-0.99,0.67-1.55c-0.09-0.82-1.06-1.4-1.08-2.22c-0.01-0.39,1.09-0.22,1.01-0.61
		c-0.25-1.31-1.48-2.28-1.82-3.57c-0.12-0.45,0.13-1.06,0.54-1.28c0.02-0.01,0.05-0.02,0.07-0.04c-0.64,0.18-1.24,0.56-1.42,1.18
		c-0.24,0.8,0.8,2.62-0.13,3.37c-0.57,0.46-2.68-0.15-2.36,1.82c0.13,0.78,0.75,1.52,0.61,2.29c-0.09,0.52-0.97,0.54-1.21,1.01
		c-0.33,0.63,0.09,1.58-0.4,2.09c-0.93,0.95-2.54,0.98-3.51,1.89c-0.41,0.39-0.43,1.14-0.27,1.69c0.38,1.24,1.33,2.24,1.82,3.44
		c0.41,1-0.75,1.22-1.48,1.15c-1.08-0.11-4-1.46-4.85-0.74c-1.67,1.4-1.99,3.85-4.65,1.48c-1.24-1.1-2,0.37-3.1-0.13
		c-3.24-1.49-7.83-4.01-8.71-3.03c-0.49,0.55,2.32,5.49-1.74,3.84c-2.26-0.92-4.31-2.31-6.47-3.44c-10.74-5.61-4.03,0.97-1.48,4.92
		c0.21,0.33,0.05,0.91-0.27,1.15c-0.56,0.41-1.52,0.06-2.02,0.54c-0.34,0.33-0.27,1.03,0,1.42c1.63,2.34,3.81,4.26,5.53,6.54
		c0.45,0.59,0.76,1.3,0.94,2.02c0.06,0.23-0.03,0.67-0.27,0.67c-1.41,0.04-2.89-1.44-3.71-1.48c-0.48-0.02-1.7,1.71-2.56,1.55
		c-0.92-0.18-1.49-1.19-2.36-1.55c-0.69-0.29-1.49-0.2-2.22-0.34c-0.02,0-0.03-0.01-0.05-0.01c-0.85-0.15-1.77-0.1-2.52-0.53
		c-1.44-0.83-2.66-2-3.84-3.17c-1.1-1.09-1.82-2.54-2.97-3.57c-0.83-0.75-1.77-1.36-2.72-1.97c4.91,5.04,6.43,8.51,11.1,13.57
		c4.17,4.51,8.65,8.8,13.62,12.41c3.33,2.42,7.57,3.33,11.06,5.53c2.48,1.56,4.2,4.2,6.74,5.66c4.75,2.75,9.88,4.82,14.97,6.88
		c2.11,0.85,4.39,1.22,6.58,1.83c-1.36-0.58-2.69-1.39-3.63-2.5c-0.39-0.46-0.11-1.27-0.47-1.75c-0.41-0.55-1.36-0.55-1.69-1.15
		c-0.28-0.52,0.41-1.23,0.13-1.75c-0.34-0.65-1.16-0.92-1.75-1.35c-0.55-0.4-1.4-0.53-1.69-1.15c-0.22-0.47,0.53-0.97,0.47-1.48
		c-0.07-0.64-0.32-1.34-0.81-1.75c-0.97-0.83-2.49-0.89-3.37-1.82c-0.47-0.49-0.6-1.43-0.27-2.02c0.43-0.79,1.9-0.71,2.22-1.55
		c0.27-0.7-0.3-1.54-0.81-2.09c-0.53-0.57-1.42-0.62-2.09-1.01c-0.64-0.38-1.82-0.54-1.82-1.28c0-0.61,1.22-0.34,1.82-0.2
		c1.36,0.3,2.52,1.35,3.91,1.48c0.86,0.08,1.6-0.65,2.43-0.88c0.86-0.24,1.76-0.75,2.63-0.54c1.05,0.25,1.72,1.35,2.7,1.82
		c0.41,0.2,0.9,0.08,1.35,0.14c1.78,0.22,3.54,0.75,5.33,0.67c0.81-0.04,1.85-0.29,2.22-1.01c0.43-0.82,0.27-2.01-0.27-2.76
		c-0.55-0.77-1.62-1.24-2.56-1.21c-1.15,0.03-2.06,1.05-3.17,1.35c-0.78,0.21-1.66,0.39-2.43,0.13c-1.45-0.49-2.53-1.79-3.98-2.29
		c-1.02-0.35-2.39,0.47-3.24-0.2c-2.77-2.22-4.45-5.57-7.01-8.02C208.48,543.7,207.6,543.31,206.82,543.44L206.82,543.44z"/>
	<radialGradient id="SVGID_18_" cx="200.2316" cy="499.2884" r="88.1509" gradientUnits="userSpaceOnUse">
		<stop  offset="1.100000e-07" style="stop-color:#FFFFFF"/>
		<stop  offset="1" style="stop-color:#848433"/>
	</radialGradient>
	<path class="st17" d="M206.82,543.44c-1.64,0.28-2.98,1.54-4.58,1.96c-0.55,0.14-1.11-0.33-1.69-0.34c-0.99-0.01-2,0.49-2.97,0.27
		c-0.93-0.21-1.86-0.72-2.43-1.48c-0.47-0.64-0.16-1.6-0.4-2.36c-0.23-0.7-0.36-1.62-1.01-1.96c-1.89-0.98-4.23-0.8-6.14-1.75
		c-0.48-0.24-0.11-1.15-0.47-1.55c-0.92-1.02-2.28-1.57-3.24-2.56c-0.2-0.21-0.34-0.99-0.07-0.88c1.01,0.42,1.64,1.48,2.63,1.96
		c0.57,0.27,1.32-0.07,1.89,0.2c0.75,0.36,1.08,1.42,1.89,1.62c1.22,0.31,2.53-0.36,3.78-0.2c1.42,0.18,2.69,1.11,4.11,1.21
		c0.48,0.04,1.19-0.32,1.21-0.81c0.08-1.67-1.28-3.29-0.94-4.92c0.19-0.92,1.37-1.76,2.29-1.62c0.05,0.01,0.09,0.02,0.13,0.03
		c-0.29-0.48-0.56-0.98-0.83-1.48c-0.57,0.15-1.09,0.52-1.73,0.23c-3.24-1.49-7.83-4.01-8.71-3.03c-0.49,0.55,2.32,5.49-1.74,3.84
		c-2.26-0.92-4.31-2.31-6.47-3.44c-10.74-5.61-4.03,0.97-1.48,4.92c0.21,0.33,0.05,0.91-0.27,1.15c-0.56,0.41-1.52,0.06-2.02,0.54
		c-0.34,0.33-0.27,1.03,0,1.42c1.63,2.34,3.81,4.26,5.53,6.54c0.45,0.59,0.76,1.3,0.94,2.02c0.06,0.23-0.03,0.67-0.27,0.67
		c-1.41,0.04-2.89-1.44-3.71-1.48c-0.48-0.02-1.7,1.71-2.56,1.55c-0.92-0.18-1.49-1.19-2.36-1.55c-0.69-0.29-1.49-0.2-2.22-0.34
		c-0.02,0-0.03-0.01-0.05-0.01c-0.85-0.15-1.77-0.1-2.52-0.53c-1.44-0.83-2.66-2-3.84-3.17c-1.1-1.09-1.82-2.54-2.97-3.57
		c-0.83-0.75-1.77-1.36-2.72-1.97c4.91,5.04,6.43,8.51,11.1,13.57c4.17,4.51,8.65,8.8,13.62,12.41c3.33,2.42,7.57,3.33,11.06,5.53
		c2.48,1.56,4.2,4.2,6.74,5.66c4.75,2.75,9.88,4.82,14.97,6.88c2.11,0.85,4.39,1.22,6.58,1.83c-1.36-0.58-2.69-1.39-3.63-2.5
		c-0.39-0.46-0.11-1.27-0.47-1.75c-0.41-0.55-1.36-0.55-1.69-1.15c-0.28-0.52,0.41-1.23,0.13-1.75c-0.34-0.65-1.16-0.92-1.75-1.35
		c-0.55-0.4-1.4-0.53-1.69-1.15c-0.22-0.47,0.53-0.97,0.47-1.48c-0.07-0.64-0.32-1.34-0.81-1.75c-0.97-0.83-2.49-0.89-3.37-1.82
		c-0.47-0.49-0.6-1.43-0.27-2.02c0.43-0.79,1.9-0.71,2.22-1.55c0.27-0.7-0.3-1.54-0.81-2.09c-0.53-0.57-1.42-0.62-2.09-1.01
		c-0.64-0.38-1.82-0.54-1.82-1.28c0-0.61,1.22-0.34,1.82-0.2c1.36,0.3,2.52,1.35,3.91,1.48c0.86,0.08,1.6-0.65,2.43-0.88
		c0.86-0.24,1.76-0.75,2.63-0.54c1.05,0.25,1.72,1.35,2.7,1.82c0.41,0.2,0.9,0.08,1.35,0.14c1.78,0.22,3.54,0.75,5.33,0.67
		c0.81-0.04,1.85-0.29,2.22-1.01c0.43-0.82,0.27-2.01-0.27-2.76c-0.55-0.77-1.62-1.24-2.56-1.21c-1.15,0.03-2.06,1.05-3.17,1.35
		c-0.78,0.21-1.66,0.39-2.43,0.13c-1.45-0.49-2.53-1.79-3.98-2.29c-1.02-0.35-2.39,0.47-3.24-0.2c-2.77-2.22-4.45-5.57-7.01-8.02
		C208.48,543.7,207.6,543.31,206.82,543.44L206.82,543.44z"/>
	<radialGradient id="SVGID_19_" cx="263.4328" cy="331.7961" r="109.0523" gradientUnits="userSpaceOnUse">
		<stop  offset="0" style="stop-color:#F2F5FB"/>
		<stop  offset="1" style="stop-color:#010101"/>
	</radialGradient>
	<path class="st18" d="M200.5,314.86c0-2.76,0.82-0.7,2.68-2.43c0.59-0.55-0.56-1.53-0.79-1.37c-2.21,1.53-0.95-0.65-2.3,1.84
		c-0.73,1.34-2.54-0.3-3.03,2.1c-0.16,0.78-3.3,2.53-3.98,3.56c-0.47,0.72-6.23,5.79-1.39,3.98c0.8-0.3,2.05-3.01,4.85-4.11
		C197.43,318.09,200.5,315.77,200.5,314.86L200.5,314.86z M208.13,309.19c3.51-1.69,6.22-5.17,10.77-4.38
		c3.83,0.66-0.01-4.19,5.54-3.93c2.91,0.14,4.17-2.24,0.68-3.79c-6.45-2.85-6.4,4.49-10.51,4.21c-3.03-0.21-5.68,3.66-7.49,5.83
		C204.71,310.02,205.77,310.32,208.13,309.19L208.13,309.19z M231.44,300.6c1.58,1.69,7.24-1.57,9.36-0.31
		c1.13,0.67-0.14,2.28-0.7,3.8c-0.59,1.62,1.03,1.65,2.94,0.07c2.9-2.38,7.52-7.2,12.05-8.8c2.2-0.78,4.98-0.94,3.17,0.6
		c-0.54,0.46-0.63,4.73,3.93,1.34c7.67-5.69,5.29,0.04,6.19,0.39c2.46,0.98,7.12-3.32,8.45-0.56c1.01,2.09-4.51,2.99-1.79,5.36
		c2.99,2.61,5.12-4.48,8.87-4.63c0.04,0,6.68-5.63,6.25,0.98c-0.01,0.1-3.99,4.58,1.02,3.18c2.42-0.67,2.48-8.61,5.31-5.74
		c1.01,1.02-0.64,4.69,1.16,6.7c0.77,0.85-2.38,7.51,2.52,6.51c2.48-0.51,1.36-9.37,1.7-10.67c0.86-3.29,3.91-1.86,5.95-0.02
		c0.5,0.45,1.37,1.72,2.83,1.48c4.24-0.69,5.28,0.89,4.93,3.67c-0.2,1.6-0.5,3.77,2.45,6.69c1.04,1.03,3.26,4.74,4.27,2.58
		c0.63-1.36,0.55-2.25-0.47-3.84c-0.68-1.05-1.43-2.41-1.6-3.56c-0.4-2.79,5.03-3.99,5.56-0.04c0.16,1.16,0.5,2.31,3.52,2.31
		c3.52,0,8.16,2.65,8.71,6.35c0.44,2.95,8.77,3.16,5.97-2.99c-0.65-1.42,0.82-1.46,2.76-1.14c-0.78-1.28-1.67-2.5-2.59-3.68
		c-0.4-0.51-0.81-1-1.25-1.48c-1.58-0.16-2.73,0.24-2.73,1.73c0,0.88,0.72,2.34-1.54,1.59c-0.03-0.01-4.08-3.98-6.03-4.84
		c-1.85-0.82-5.27-4.48-0.38-4.71c0.61-0.03,3.69,1.71,5.78,2.08c-1.41-0.85-2.91-1.56-4.23-2.53c-1.82-1.33-3.42-2.92-5.12-4.38
		c-0.07-0.06-0.15-0.12-0.2-0.2c-1.39-2.17-2.27-4.74-4.11-6.54c-1.9-1.87-4.36-3.13-6.81-4.18c-2.26-0.97-4.85-0.95-7.15-1.82
		c-3.5-1.32-6.62-3.59-10.18-4.72c-4.06-1.29-8.3-2.08-12.54-2.49c-1.98-0.2-3.94,0.61-5.93,0.67c-1.53,0.05-3.09-0.02-4.58-0.34
		c-1.09-0.23-1.98-1.29-3.1-1.28c-4.99,0.02-9.96,0.7-14.9,1.35c-1.07,0.14-2.09,0.53-3.12,0.86c-0.23,0.3-0.58,0.67-1.09,1.11
		c-0.44,0.38-14.01,0.49-9.5,3.64c1.46,1.02,8.44-1.05,5.06,3.32c-3.12,4.03-17.52,2.03-20.64,6.41c-0.23,0.32-5.62,2.05-2.62,4.68
		c2.87,2.53,7.6-2.94,11-1.98c2.51,0.71,18.4-6.08,18.1-2.03c-0.17,2.25-8.49,2.97-14.05,4.06c-1.55,0.3-8.77,2.1-9.79,2.51
		C230.81,297.81,229.82,298.87,231.44,300.6L231.44,300.6z"/>
	<radialGradient id="SVGID_20_" cx="197.57" cy="391.3541" r="94.482" gradientUnits="userSpaceOnUse">
		<stop  offset="0" style="stop-color:#C6C55B"/>
		<stop  offset="1" style="stop-color:#0D120D"/>
	</radialGradient>
	<path class="st19" d="M186.93,455.19c-1.09-0.47-2.3,0.76-3.24,1.48c-1.48,1.15-2.1,3.55-3.91,4.05c-2.07,0.57-4.22-1.58-6.34-1.21
		c-1.35,0.23-1.6,2.78-2.97,2.83c-1.48,0.06-3.03-1.21-3.64-2.56c-0.56-1.25,0.81-2.69,0.67-4.05c-0.14-1.34-1.77-2.46-1.48-3.78
		c0.63-2.87,2.96-5.09,4.05-7.82c0.42-1.05,1.16-2.53,0.4-3.37c-0.6-0.68-1.67,0.79-2.56,0.94c-2,0.34-4.2,1.33-6.07,0.54
		c-1.51-0.63-2.7-2.55-2.56-4.18c0.11-1.25,2.48-1.06,3.1-2.16c0.71-1.26-0.07-3,0.54-4.31c0.33-0.71,1.24-1.19,2.02-1.21
		c1.22-0.03,2.34,1.46,3.51,1.08c1.42-0.46,1.71-2.7,3.1-3.24c1.76-0.68,3.92,0.59,5.66-0.13c0.83-0.34,0.89-1.67,0.81-2.56
		c-0.19-2.04-1.93-3.91-1.62-5.93c0.17-1.12,2.24-0.92,2.83-1.89c0.59-0.96-0.18-2.4,0.4-3.37c0.94-1.55,2.35-2.86,3.91-3.78
		c1.98-1.15,4.97-0.57,6.47-2.29c1.15-1.32-0.15-3.53,0.13-5.26c0.35-2.08,0.73-4.23,1.75-6.07c0.38-0.69,1.69-0.31,2.16-0.94
		c1.32-1.77,1.36-4.41,2.97-5.93c0.25-0.23,0.53-0.42,0.84-0.57c-0.85,0.2-1.71,0.38-2.35,0.93c-0.94,0.8-0.52,3.57-2.36,3.71
		c-0.51,0.04-2.83-1.48-3.84,0.13c-0.74,1.19,0.63,3.71,0.4,4.52c-0.13,0.48-0.99,0.43-1.21,0.88c-0.3,0.6,0.23,3.52-2.36,4.58
		c-1.4,0.58-4.75-1.81-5.87,1.42c-0.52,1.5,1.33,4.75-0.94,5.6c-0.69,0.26-1.58,0.21-2.09,0.74c-0.48,0.51,0.01,1.59-0.54,2.02
		c-8.37,6.6-15.2,0.94-23.19,8.02c-3.58,3.17-3.34,6.04,0.3,5.63c1.6-0.18,3.05-0.6,3.74,0.84c0.46,0.96-0.17,2.25-0.81,3.1
		c-0.71,0.96-2.39,2.04-4.22,3.2c-0.02,0.05-0.05,0.09-0.07,0.14c-0.49,0.92-1.48,1.51-1.96,2.43c-0.37,0.72-0.38,1.57-0.54,2.36
		c-0.02,0.09-0.08,0.23,0,0.27c0.82,0.39,1.8,0.45,2.56,0.94c0.98,0.63,2.37,1.21,2.56,2.36c0.2,1.23-1.53,2.13-1.62,3.37
		c-0.07,0.96,0.38,2.14,1.21,2.63c1.98,1.16,4.38,1.39,6.61,1.96c0.41,0.11,1.12-0.33,1.28,0.07c0.35,0.86-0.53,1.93-0.13,2.76
		c0.43,0.91,2.05,0.93,2.36,1.89c0.33,1.03-0.77,2.08-0.74,3.17c0.02,0.99,0.3,2.03,0.88,2.83c1.53,2.11,3.35,4.03,5.33,5.73
		c1.27,1.09,2.65,2.46,4.31,2.56c1.67,0.1,2.92-1.88,4.58-2.02c1.16-0.1,2.84,0.25,3.24,1.35c0.62,1.71-1.53,3.73-0.81,5.39
		c0.08,0.19,0.2,0.33,0.36,0.45c1.84-1.75,3.34-3.88,5.15-5.67c3.22-3.2,3.81,1.58,8.9-0.54c1.66-0.69,2.99-2,4.52-2.97
		c4.81-3.04,4.77-0.28,3.12,1.47c-2.1,2.23,0.85,3.86,1.81,1.46c0.57-1.43,1.26-3.94,2.02-6.15c1.43-4.14,3.68-6.95,5.58-4.37
		c0.53,0.72,1.51,0.95,2.24-0.43c0.46-0.88,1.17-3.88,1.87-6.19c1.21-4.01,2.11-3.61,1.65-0.13c-0.15,1.17-0.36,2.53-0.23,3.59
		c0.28,2.31,1.74,2.59,2.78,0.3c0.97-2.16,2.01-6.06,2.77-8.41c0.48-1.51,1.97-3.53,3.66-4.38c1.45-0.73,1.58,0.16,1.54,0.83
		c-0.03,0.47,0.09,0.86,0.54,0.99c2.65,0.74,11.56-11.1,13-13.48c0.71-1.17,1.42-2.37,2.36-3.37c1.16-1.22,5.49-3.3,7.08-4.05
		c2.22-1.04,4.62-1.68,6.74-2.9c1.4-0.8,2.65-1.89,3.71-3.1c0.99-1.12,1.52-2.57,2.36-3.81c0.96-1.42,2.54-3.2,3.22-1.92
		c-0.05-0.19-0.12-0.38-0.22-0.56c-0.49-0.83-2.07-0.05-2.83,0.54c-2.27,1.74-3.68,4.44-5.93,6.2c-2.91,2.27-6.28,3.89-9.44,5.8
		c-1.83,1.1-3.89,1.86-5.53,3.24c-1.52,1.27-2.31,3.25-3.78,4.58c-3.05,2.78-6.11,5.67-9.71,7.69c-2.45,1.37-5.69,0.85-8.09,2.29
		c-1.22,0.73-0.68,3.3-2.02,3.78c-1.7,0.6-3.49-1.54-5.26-1.21c-1.07,0.2-1.57,1.57-2.02,2.56c-0.82,1.8-0.55,4.1-1.75,5.66
		c-0.91,1.18-2.94,0.9-4.05,1.89c-1.98,1.77-3.03,4.42-4.99,6.2c-1.6,1.45-3.43,2.85-5.53,3.37c-1.59,0.39-3.51,0.13-4.85-0.81
		c-1.14-0.79-0.99-2.62-1.75-3.78C189.52,458.03,188.69,455.94,186.93,455.19L186.93,455.19z M161.55,415.01
		c1.2-0.21,3.17-0.38,4.83-0.41c2.72-0.05,2.25-2.59-0.1-4.46c-1.16-0.92-3.26-1.21-4.58-0.53c-0.47,0.24-0.71,1.07-1.14,1.39
		c-0.84,0.62-3.43,1.15-5.28,2.55c-0.75,0.57-1.57,1.16-1.98,2.05c-0.52,1.12,0,1.31,0.42,1.28
		C156.39,416.69,158.91,415.47,161.55,415.01L161.55,415.01z"/>
</g>
<g>
	
		<radialGradient id="SVGID_21_" cx="269.969" cy="273.473" r="46.9827" gradientTransform="matrix(0.9621 -0.2726 0.2726 0.9621 -85.0754 80.0482)" gradientUnits="userSpaceOnUse">
		<stop  offset="0" style="stop-color:#A4CDED"/>
		<stop  offset="0.1142" style="stop-color:#B6D6F0"/>
		<stop  offset="0.3423" style="stop-color:#D4E5F6"/>
		<stop  offset="0.5684" style="stop-color:#EAF2FA"/>
		<stop  offset="0.7896" style="stop-color:#F8FBFE"/>
		<stop  offset="1" style="stop-color:#FFFFFF"/>
	</radialGradient>
	<path class="st20" d="M225.5,267.16c4.07-0.68,14.1-5.76,19.99-7.42c6.2-1.74,8.84-1.71,15.38-1.92c2.02-0.06,2.89-0.99,3.05-2.19
		c0.87-6.37-14.18-14.57-22.44-7.86c-6.73-3.45-15.32-4.13-20.46,3.29C217.05,256.8,214.17,269.06,225.5,267.16L225.5,267.16z"/>
	
		<radialGradient id="SVGID_22_" cx="275.0453" cy="302.4962" r="66.8836" gradientTransform="matrix(0.9621 -0.2726 0.2726 0.9621 -85.0754 80.0482)" gradientUnits="userSpaceOnUse">
		<stop  offset="0" style="stop-color:#ABC2E5"/>
		<stop  offset="0.9963" style="stop-color:#FFFFFF"/>
	</radialGradient>
	<path class="st21" d="M225.03,254.63c-5.04,3.1-6.56,10.93-1.42,12.73c0.58-0.02,1.2-0.08,1.88-0.19
		c4.07-0.68,14.1-5.76,19.99-7.42c5.7-1.6,8.39-1.7,13.88-1.87c5.67-3.72-6.89-8.97-11.19-8.49c-4.46,0.49-5.45,4.47-5.18,6.83
		C238.15,253.52,230.74,251.12,225.03,254.63L225.03,254.63z"/>
</g>
<g>
	
		<radialGradient id="SVGID_23_" cx="294.3946" cy="486.2738" r="167.571" gradientTransform="matrix(0.9333 0.3591 -0.3591 0.9333 158.3192 -58.5771)" gradientUnits="userSpaceOnUse">
		<stop  offset="0" style="stop-color:#A4CDED"/>
		<stop  offset="0.1142" style="stop-color:#B6D6F0"/>
		<stop  offset="0.3423" style="stop-color:#D4E5F6"/>
		<stop  offset="0.5684" style="stop-color:#EAF2FA"/>
		<stop  offset="0.7896" style="stop-color:#F8FBFE"/>
		<stop  offset="1" style="stop-color:#FFFFFF"/>
	</radialGradient>
	<path class="st22" d="M174.97,506.54c-5.21-6.33-13.84-21.18-11.05-38.22c2.48-15.15,13.54-14.78,17.69-12.87
		c-0.46-12.06,3.49-24.89,12.35-32.82c11.49-10.28,21.51,1.09,17.73,9.96c-14.36,33.73-23.92,55.21-8.15,93.22
		c11.59,27.92,34.85,51.63,59.53,64.25c-24.99,9.07-56.88-2.65-78.98-29.2c-7.33-8.81-12.39-22.86-4.73-27.37
		c-4.66-1.49-11.02-7.95-12.24-15.22C166.32,513.42,168.48,507.74,174.97,506.54L174.97,506.54z"/>
	
		<radialGradient id="SVGID_24_" cx="305.7959" cy="535.8906" r="146.3337" gradientTransform="matrix(0.9333 0.3591 -0.3591 0.9333 158.3192 -58.5771)" gradientUnits="userSpaceOnUse">
		<stop  offset="0" style="stop-color:#ABC2E5"/>
		<stop  offset="0.9963" style="stop-color:#FFFFFF"/>
	</radialGradient>
	<path class="st23" d="M205.6,447.09c0.58-13.11-7.55-18.33-15.64-7.25c-6.28,8.61-6.26,21.57-3.33,28.32
		c-25.24-7.97-18.67,28.31-6.04,42.81c-18.31,4.02-6.97,22.08,5.86,23.17c-15.65,18.98,21.03,54.52,58.05,58.94
		c6.43,0.09,12.7-0.89,18.58-3.03c-24.69-12.62-47.95-36.33-59.53-64.25C190.14,493.52,195.02,473.16,205.6,447.09L205.6,447.09z"/>
</g>
<g>
	
		<radialGradient id="SVGID_25_" cx="162.7278" cy="454.0279" r="85.3033" gradientTransform="matrix(0.9967 -0.0812 0.0812 0.9967 -29.8937 19.2716)" gradientUnits="userSpaceOnUse">
		<stop  offset="0" style="stop-color:#A4CDED"/>
		<stop  offset="0.1142" style="stop-color:#B6D6F0"/>
		<stop  offset="0.3423" style="stop-color:#D4E5F6"/>
		<stop  offset="0.5684" style="stop-color:#EAF2FA"/>
		<stop  offset="0.7896" style="stop-color:#F8FBFE"/>
		<stop  offset="1" style="stop-color:#FFFFFF"/>
	</radialGradient>
	<path class="st24" d="M141.89,478.9c3.81-9.2-0.91-21.21,8.52-59.29c1.72-6.94,4.8-13.64,6.91-20.3c0.46-1.44,1.31-3.94-2.97-3.43
		c-5.05,0.6-13.26,9.41-15.63,13.58c-4.59,8.08-3.16,13.52,0.47,19.59c-12.79,4.22-22.52,13.92-21.7,28.49
		C118.56,476.65,138.69,486.61,141.89,478.9L141.89,478.9z"/>
	
		<radialGradient id="SVGID_26_" cx="157.9037" cy="468.1552" r="95.2755" gradientTransform="matrix(0.9967 -0.0812 0.0812 0.9967 -29.8937 19.2716)" gradientUnits="userSpaceOnUse">
		<stop  offset="0" style="stop-color:#ABC2E5"/>
		<stop  offset="0.9963" style="stop-color:#FFFFFF"/>
	</radialGradient>
	<path class="st25" d="M132.07,460.87c-13.94,6.79-14.71-7.73-11.27-17.95c-2.38,4.13-3.63,9.02-3.32,14.62
		c1.07,19.11,21.21,29.07,24.41,21.36c3.81-9.2-0.91-21.21,8.52-59.29c1.72-6.94,4.8-13.64,6.91-20.3c0.46-1.44,1.31-3.94-2.97-3.43
		c-2.76,0.33-6.47,3.12-9.66,6.25c4.38-3.54,7.21-4.61,7.47-3.74c0.45,1.51-3.28,8.31-5.16,17.36c-1.33,6.4,0.76,14.73-6.25,14.03
		C147.01,441.34,144.4,454.86,132.07,460.87L132.07,460.87z"/>
</g>
<g>
	
		<radialGradient id="SVGID_27_" cx="277.8274" cy="362.583" r="118.6582" gradientTransform="matrix(0.988 0.1543 -0.1543 0.988 58.2236 -34.3971)" gradientUnits="userSpaceOnUse">
		<stop  offset="0" style="stop-color:#A4CDED"/>
		<stop  offset="0.1142" style="stop-color:#B6D6F0"/>
		<stop  offset="0.3423" style="stop-color:#D4E5F6"/>
		<stop  offset="0.5684" style="stop-color:#EAF2FA"/>
		<stop  offset="0.7896" style="stop-color:#F8FBFE"/>
		<stop  offset="1" style="stop-color:#FFFFFF"/>
	</radialGradient>
	<path class="st26" d="M195.16,368.27c1.69-7.94,8.58-15.26,15.49-19.62c-4.73-2.6-13.93-11.66-1.79-27.38
		c11.73-15.19,35.74-24.73,41.77-8.57c3.8-4.18,8.24-7.23,13.72-6.18c2.32,0.44,4.25,2.41,5.24,4.79
		c2.57-8.95,15.06-23.14,32.22-21.06c22.45,2.73,26.61,23.57,3.45,31.84c-15.67,5.6-29.96,4.88-47.83,12.84
		c-18.89,8.41-27.53,13.95-38.86,30.89c-2.18,3.26-3.74,6.93-6.08,10.08C203.26,388.33,192.15,382.41,195.16,368.27L195.16,368.27z"
		/>
	
		<radialGradient id="SVGID_28_" cx="290.3921" cy="380.8909" r="121.9742" gradientTransform="matrix(0.988 0.1543 -0.1543 0.988 58.2236 -34.3971)" gradientUnits="userSpaceOnUse">
		<stop  offset="0" style="stop-color:#ABC2E5"/>
		<stop  offset="0.9963" style="stop-color:#FFFFFF"/>
	</radialGradient>
	<path class="st27" d="M218.72,355.66c-0.17,6.32-8.13,18.63-13.51,22.14c-4.21,2.74-8.43,2.68-10.41-2.83
		c1.23,8.96,10.09,11.16,17.68,0.94c2.34-3.15,3.9-6.82,6.08-10.08c11.33-16.94,19.96-22.48,38.86-30.89
		c17.87-7.96,32.16-7.24,47.83-12.84c23.16-8.27,19-29.12-3.45-31.84c-0.57-0.07-1.13-0.12-1.69-0.15
		c19.45,3.98,19.27,17.53,9.51,25.56c-7.25,5.97-19.21,10.03-30.46,8.54c-4.15-0.55-7.55-2.55-10.09-7.56
		c-2.63,12.34-17.05,13.02-18.82-1.03c0.46,22.36-21.53,37.16-37.29,33.36C217.33,350.34,218.8,352.76,218.72,355.66L218.72,355.66z
		"/>
</g>
<radialGradient id="SVGID_29_" cx="366.4073" cy="413.6577" r="130.3013" gradientUnits="userSpaceOnUse">
	<stop  offset="0" style="stop-color:#A4CDED"/>
	<stop  offset="0.1142" style="stop-color:#B6D6F0"/>
	<stop  offset="0.3423" style="stop-color:#D4E5F6"/>
	<stop  offset="0.5684" style="stop-color:#EAF2FA"/>
	<stop  offset="0.7896" style="stop-color:#F8FBFE"/>
	<stop  offset="1" style="stop-color:#FFFFFF"/>
</radialGradient>
<path class="st28" d="M445.97,361.63c12.96-25.12-17.59-50.59-34.8-30.69c-5.05-12.38-29.25-16.49-38.2-4.48
	c-3.32,4.46-4.64,10.54-2.99,16.67c-7.34-4.56-14.72,0.21-15.91,11.11c-24.27-5.86-59.66,7.22-73.06,38.75
	c-11.62,27.36,1.5,47.45,22.14,45.54c20.76-1.92,24.92-26.75,33.84-41.74c5.35-8.99,13.32-20.82,23.74-13.65
	c3.93,2.7,12,8.86,20.31,2.69c9.33-6.93,16.03-20.26,29.94-29.43C425.49,346.84,441.36,344.73,445.97,361.63L445.97,361.63z"/>
<radialGradient id="SVGID_30_" cx="405.2708" cy="434.1992" r="179.6677" gradientUnits="userSpaceOnUse">
	<stop  offset="0" style="stop-color:#ABC2E5"/>
	<stop  offset="0.9963" style="stop-color:#FFFFFF"/>
</radialGradient>
<path class="st29" d="M352.43,364.85c-16.4,7.31-21.48,26.06-30.78,40.14c-17.07,25.85-44.84,29.94-43.58-3.35
	c-5.75,22.82,6.68,38.6,25.08,36.9c20.76-1.92,24.92-26.75,33.84-41.74c5.35-8.99,13.32-20.82,23.74-13.65
	c3.93,2.7,12,8.86,20.31,2.69c9.33-6.93,16.03-20.26,29.94-29.43c14.51-9.56,30.38-11.68,34.99,5.22
	c7.32-14.2,0.75-28.51-9.46-34.67c3.51,4.22,7.18,10.35,1.22,14.14c-6.04,3.83-20.34-2-26.25-6.38
	c-0.39,19.65-19.04,23.51-34.06,14.84c3.75,2.47,6.81,5.2,8.76,8.1c7.22,10.77-4,18.69-12.63,16.07c-2.64-0.8-4.87-2.85-6.44-6.5
	C364.59,361.35,358.22,362.27,352.43,364.85L352.43,364.85z"/>
<g>
	
		<radialGradient id="SVGID_31_" cx="441.0333" cy="391.7813" r="50.3501" gradientTransform="matrix(0.9985 0.0556 -0.0556 0.9985 36.1013 -17.0487)" gradientUnits="userSpaceOnUse">
		<stop  offset="0" style="stop-color:#A4CDED"/>
		<stop  offset="0.1142" style="stop-color:#B6D6F0"/>
		<stop  offset="0.3423" style="stop-color:#D4E5F6"/>
		<stop  offset="0.5684" style="stop-color:#EAF2FA"/>
		<stop  offset="0.7896" style="stop-color:#F8FBFE"/>
		<stop  offset="1" style="stop-color:#FFFFFF"/>
	</radialGradient>
	<path class="st30" d="M466.99,370.1c-1.24-1.4-3.14-2.87-4.98-2.58c-1.59,0.25-2.85,2.21-2.96,3.81
		c-0.35,5.02,8.47,19.78,6.27,36.73c-0.54,4.2-1.91,7.23-0.89,7.95c0.87,0.61,3.66-0.4,7.85-3.96c7.65-6.51,14.21-17.39,6.85-24.98
		c-2.46-2.54-5.62-4.78-9.29-5.89C470.62,377.21,470.13,373.64,466.99,370.1L466.99,370.1z"/>
	
		<radialGradient id="SVGID_32_" cx="434.1941" cy="406.3982" r="51.7697" gradientTransform="matrix(0.9985 0.0556 -0.0556 0.9985 36.1013 -17.0487)" gradientUnits="userSpaceOnUse">
		<stop  offset="0" style="stop-color:#ABC2E5"/>
		<stop  offset="0.9963" style="stop-color:#FFFFFF"/>
	</radialGradient>
	<path class="st31" d="M476.98,394.7c-0.75-5.96-6.54-10.51-12.04-11.33c1.16-5.22-2.73-11.72-5.47-9.02
		c1.7,6.65,7.7,19.39,5.84,33.71c-0.54,4.2-1.91,7.23-0.89,7.95c0.57,0.4,1.96,0.1,4.02-1.14
		C474.35,409.78,477.83,401.51,476.98,394.7L476.98,394.7z"/>
</g>
<radialGradient id="SVGID_33_" cx="349.5586" cy="542.6005" r="169.6154" gradientUnits="userSpaceOnUse">
	<stop  offset="0" style="stop-color:#A4CDED"/>
	<stop  offset="0.1142" style="stop-color:#B6D6F0"/>
	<stop  offset="0.3423" style="stop-color:#D4E5F6"/>
	<stop  offset="0.5684" style="stop-color:#EAF2FA"/>
	<stop  offset="0.7896" style="stop-color:#F8FBFE"/>
	<stop  offset="1" style="stop-color:#FFFFFF"/>
</radialGradient>
<path class="st32" d="M359.47,578.69c-50.74,37.77-95.46-35.53-58.2-49.71c-9.9-32.68,13.07-72,37.45-66.33
	c5.68,1.32,11.23,6.4,12.03,16.44c5.88-21.38,37.29-39.14,41.02-16.45c16.79-30.4,56.98-28.4,45.4,20.1
	c-4.91,20.59-11.91,32.16-21.62,43.25c-17.53,20.02-54.35,15.86-24.85-18.45c1.85-2.15,6.11-7.54,10.09-13.32
	c8.25-11.99,9.98-27.15-8.29-19.93c-4.88,1.93-11.98,7.95-15.65,9.79c-9.29,4.66-14.15,4.15-23.01,9.58
	c-24.45,14.98-16.64,26.37-15.03,39.93c1.07,9.02-1.53,12.22-4.89,14.4c-9.01,5.85-15.5,14.44-8.39,25.5
	C331.56,582.84,348.37,584.89,359.47,578.69L359.47,578.69z"/>
<radialGradient id="SVGID_34_" cx="365.8885" cy="554.5343" r="117.8326" gradientUnits="userSpaceOnUse">
	<stop  offset="0" style="stop-color:#ABC2E5"/>
	<stop  offset="0.9963" style="stop-color:#FFFFFF"/>
</radialGradient>
<path class="st33" d="M325.54,573.48c-7.11-11.05-0.63-19.65,8.39-25.5c3.36-2.18,5.97-5.38,4.89-14.4
	c-1.61-13.56-9.43-24.95,15.03-39.93c8.86-5.43,13.72-4.93,23.01-9.58c3.67-1.84,10.77-7.87,15.65-9.79
	c18.27-7.22,16.54,7.94,8.29,19.93c-3.98,5.79-8.25,11.18-10.09,13.32c-21.53,25.04-7.73,34.02,8.11,29.26
	c4.66-1.4,8.33-3.68,11.66-7.24c16.63-17.79,27.97-52.97,9.31-66.92c-7.49-5.6-18.95-4.56-30.5,9.89
	c4.67-25.37-33.81-5.2-40.06,18.88c-0.78-29.58-25.87-17.83-31.28,6.02c-3.19,14.06-0.66,27.72,4.3,39.3
	c-9.09-1.24-16.04,2.75-18.56,9.59c-8.72,23.59,27.16,49.08,55.79,32.37C348.37,584.89,331.56,582.84,325.54,573.48L325.54,573.48z"
	/>
</svg>
